<svg xmlns="http://www.w3.org/2000/svg" xmlns:xlink="http://www.w3.org/1999/xlink" width="39.6" height="249" viewBox="0 0 39.6 249">
  <defs>
    <filter id="Path_37340">
      <feOffset dy="3" input="SourceAlpha"/>
      <feGaussianBlur stdDeviation="3" result="blur"/>
      <feFlood flood-opacity="0.161" result="color"/>
      <feComposite operator="out" in="SourceGraphic" in2="blur"/>
      <feComposite operator="in" in="color"/>
      <feComposite operator="in" in2="SourceGraphic"/>
    </filter>
  </defs>
  <g data-type="innerShadowGroup">
    <path id="Path_37340-2" data-name="Path 37340" d="M-243.09,0q-3.87,0-5.85-1.77a6.639,6.639,0,0,1-1.98-5.22,6.706,6.706,0,0,1,1.77-4.845,7.016,7.016,0,0,1,4.86-2.025l.42,2.91a4.472,4.472,0,0,0-2.895,1.125,3.883,3.883,0,0,0-.915,2.805q0,4.02,4.5,4.02h10.41V-13.71h3.3V0Zm.33-19.5h3.03v3.06h-3.03Zm4.62,0h3v3.06h-3ZM-225.63,0V-21.42h3.3V0Zm5.73,3.63a10.592,10.592,0,0,0,1.83.24q2.04,0,2.04-2.25V-13.71h3.27V1.5a5.627,5.627,0,0,1-1.155,3.9,4.6,4.6,0,0,1-3.555,1.26,10.85,10.85,0,0,1-2.94-.45ZM-203.31,0h-7.35V-21.42h3.3V-3h4.05Zm-.9-3h4.08V-13.71h3.27V-3h4.08V0h-11.43Zm-.21,5.31h3.03V5.34h-3.03Zm4.62,0h3V5.34h-3ZM-165.93-3V0h-27.75V-3h4.05V-13.71h3.3V-3h4.89V-13.71h3.3V-3h4.83v-7.41a5.169,5.169,0,0,0-.6-2.55l3-1.23a4.7,4.7,0,0,1,.69,1.47,7.786,7.786,0,0,1,.21,1.98V-3Zm-.9,0h4.08V-21.42h3.27V0h-7.35Zm11.19,3V-21.42h3.3V0Zm25.8,3.63a10.592,10.592,0,0,0,1.83.24q2.04,0,2.04-2.25V-13.71h3.27V-3h4.08V0h-4.08V1.5a5.628,5.628,0,0,1-1.155,3.9,4.6,4.6,0,0,1-3.555,1.26,10.85,10.85,0,0,1-2.94-.45ZM-119.52-3h4.08V-13.71h3.27V-3h4.08V0h-11.43Zm-.21,5.31h3.03V5.34h-3.03Zm4.62,0h3V5.34h-3ZM-108.99-3h10.86V-7.2a5.386,5.386,0,0,0-.72-3.21,2.968,2.968,0,0,0-2.49-.93,3.892,3.892,0,0,0-2.31.555,3.276,3.276,0,0,0-1.08,1.965l-3.18-.33a5.862,5.862,0,0,1,2.04-3.81,7.214,7.214,0,0,1,4.5-1.23q3.36,0,4.935,1.62T-94.86-7.5V-3h2.37V0h-16.5Zm6.42,5.28h3.06V5.37h-3.06ZM-82.32,0h-7.35V-21.42h3.3V-3h4.05Zm-3.12-24.24v1.26h-5.28v-1.26h.66v-1.53a2.178,2.178,0,0,1,.6-1.635,2.305,2.305,0,0,1,1.68-.585,2.368,2.368,0,0,1,1.575.45,2.343,2.343,0,0,1,.675,1.5l-1.23.18a1.345,1.345,0,0,0-.3-.72.856.856,0,0,0-.63-.21q-.99,0-.99,1.08v1.47ZM-75.87,0h-7.35V-3h4.08v-7.41a5.169,5.169,0,0,0-.6-2.55l2.97-1.23a4.354,4.354,0,0,1,.69,1.44,7.933,7.933,0,0,1,.21,2.01Zm-7.59-19.5h3.03v3.06h-3.03Zm4.62,0h3v3.06h-3Zm42.66,8.67a2.391,2.391,0,0,0-1.92.735,3.368,3.368,0,0,0-.63,2.235V-.45a7.25,7.25,0,0,1-1.8,5.235A6.657,6.657,0,0,1-45.57,6.66,7.506,7.506,0,0,1-51,4.86,7.018,7.018,0,0,1-52.86-.42a9.517,9.517,0,0,1,.375-2.505A10.774,10.774,0,0,1-51.48-5.4l2.97.78a8.459,8.459,0,0,0-1.11,4.2,4.521,4.521,0,0,0,1,3.165,3.772,3.772,0,0,0,2.925,1.1q3.66,0,3.66-4.47V-8.01a5.8,5.8,0,0,1,1.44-4.23,5.494,5.494,0,0,1,4.11-1.47h2.01v2.88ZM-49.59,8.58h3.03v3.03h-3.03Zm4.62,0h3v3.03h-3ZM-22.71-3V-5.19a7.5,7.5,0,0,0-1.125-4.56,4.121,4.121,0,0,0-3.5-1.47,9.949,9.949,0,0,0-3.12.57l-.78-2.88a12.845,12.845,0,0,1,4.2-.66,7.16,7.16,0,0,1,5.685,2.2Q-19.41-9.78-19.41-5.52V0H-32.82V-3ZM-8.37,0h-7.35V-21.42h3.3V-3h4.05Zm6.45,0H-9.27V-3h4.08v-7.41a5.169,5.169,0,0,0-.6-2.55l2.97-1.23a4.353,4.353,0,0,1,.69,1.44,7.933,7.933,0,0,1,.21,2.01ZM-5.37-19.53h3.06v3.09H-5.37Z" transform="translate(27.99 -1.92) rotate(-90)" fill="#191919"/>
    <g transform="matrix(1, 0, 0, 1, 0, 0)" filter="url(#Path_37340)">
      <path id="Path_37340-3" data-name="Path 37340" d="M-243.09,0q-3.87,0-5.85-1.77a6.639,6.639,0,0,1-1.98-5.22,6.706,6.706,0,0,1,1.77-4.845,7.016,7.016,0,0,1,4.86-2.025l.42,2.91a4.472,4.472,0,0,0-2.895,1.125,3.883,3.883,0,0,0-.915,2.805q0,4.02,4.5,4.02h10.41V-13.71h3.3V0Zm.33-19.5h3.03v3.06h-3.03Zm4.62,0h3v3.06h-3ZM-225.63,0V-21.42h3.3V0Zm5.73,3.63a10.592,10.592,0,0,0,1.83.24q2.04,0,2.04-2.25V-13.71h3.27V1.5a5.627,5.627,0,0,1-1.155,3.9,4.6,4.6,0,0,1-3.555,1.26,10.85,10.85,0,0,1-2.94-.45ZM-203.31,0h-7.35V-21.42h3.3V-3h4.05Zm-.9-3h4.08V-13.71h3.27V-3h4.08V0h-11.43Zm-.21,5.31h3.03V5.34h-3.03Zm4.62,0h3V5.34h-3ZM-165.93-3V0h-27.75V-3h4.05V-13.71h3.3V-3h4.89V-13.71h3.3V-3h4.83v-7.41a5.169,5.169,0,0,0-.6-2.55l3-1.23a4.7,4.7,0,0,1,.69,1.47,7.786,7.786,0,0,1,.21,1.98V-3Zm-.9,0h4.08V-21.42h3.27V0h-7.35Zm11.19,3V-21.42h3.3V0Zm25.8,3.63a10.592,10.592,0,0,0,1.83.24q2.04,0,2.04-2.25V-13.71h3.27V-3h4.08V0h-4.08V1.5a5.628,5.628,0,0,1-1.155,3.9,4.6,4.6,0,0,1-3.555,1.26,10.85,10.85,0,0,1-2.94-.45ZM-119.52-3h4.08V-13.71h3.27V-3h4.08V0h-11.43Zm-.21,5.31h3.03V5.34h-3.03Zm4.62,0h3V5.34h-3ZM-108.99-3h10.86V-7.2a5.386,5.386,0,0,0-.72-3.21,2.968,2.968,0,0,0-2.49-.93,3.892,3.892,0,0,0-2.31.555,3.276,3.276,0,0,0-1.08,1.965l-3.18-.33a5.862,5.862,0,0,1,2.04-3.81,7.214,7.214,0,0,1,4.5-1.23q3.36,0,4.935,1.62T-94.86-7.5V-3h2.37V0h-16.5Zm6.42,5.28h3.06V5.37h-3.06ZM-82.32,0h-7.35V-21.42h3.3V-3h4.05Zm-3.12-24.24v1.26h-5.28v-1.26h.66v-1.53a2.178,2.178,0,0,1,.6-1.635,2.305,2.305,0,0,1,1.68-.585,2.368,2.368,0,0,1,1.575.45,2.343,2.343,0,0,1,.675,1.5l-1.23.18a1.345,1.345,0,0,0-.3-.72.856.856,0,0,0-.63-.21q-.99,0-.99,1.08v1.47ZM-75.87,0h-7.35V-3h4.08v-7.41a5.169,5.169,0,0,0-.6-2.55l2.97-1.23a4.354,4.354,0,0,1,.69,1.44,7.933,7.933,0,0,1,.21,2.01Zm-7.59-19.5h3.03v3.06h-3.03Zm4.62,0h3v3.06h-3Zm42.66,8.67a2.391,2.391,0,0,0-1.92.735,3.368,3.368,0,0,0-.63,2.235V-.45a7.25,7.25,0,0,1-1.8,5.235A6.657,6.657,0,0,1-45.57,6.66,7.506,7.506,0,0,1-51,4.86,7.018,7.018,0,0,1-52.86-.42a9.517,9.517,0,0,1,.375-2.505A10.774,10.774,0,0,1-51.48-5.4l2.97.78a8.459,8.459,0,0,0-1.11,4.2,4.521,4.521,0,0,0,1,3.165,3.772,3.772,0,0,0,2.925,1.1q3.66,0,3.66-4.47V-8.01a5.8,5.8,0,0,1,1.44-4.23,5.494,5.494,0,0,1,4.11-1.47h2.01v2.88ZM-49.59,8.58h3.03v3.03h-3.03Zm4.62,0h3v3.03h-3ZM-22.71-3V-5.19a7.5,7.5,0,0,0-1.125-4.56,4.121,4.121,0,0,0-3.5-1.47,9.949,9.949,0,0,0-3.12.57l-.78-2.88a12.845,12.845,0,0,1,4.2-.66,7.16,7.16,0,0,1,5.685,2.2Q-19.41-9.78-19.41-5.52V0H-32.82V-3ZM-8.37,0h-7.35V-21.42h3.3V-3h4.05Zm6.45,0H-9.27V-3h4.08v-7.41a5.169,5.169,0,0,0-.6-2.55l2.97-1.23a4.353,4.353,0,0,1,.69,1.44,7.933,7.933,0,0,1,.21,2.01ZM-5.37-19.53h3.06v3.09H-5.37Z" transform="translate(27.99 -1.92) rotate(-90)" fill="#fff"/>
    </g>
  </g>
</svg>
