<svg xmlns="http://www.w3.org/2000/svg" xmlns:xlink="http://www.w3.org/1999/xlink" width="257.749" height="283.607" viewBox="0 0 257.749 283.607">
  <defs>
    <filter id="Path_37339">
      <feOffset dy="3" input="SourceAlpha"/>
      <feGaussianBlur stdDeviation="3" result="blur"/>
      <feFlood flood-opacity="0.141" result="color"/>
      <feComposite operator="out" in="SourceGraphic" in2="blur"/>
      <feComposite operator="in" in="color"/>
      <feComposite operator="in" in2="SourceGraphic"/>
    </filter>
    <filter id="Path_37338">
      <feOffset dy="3" input="SourceAlpha"/>
      <feGaussianBlur stdDeviation="3" result="blur-2"/>
      <feFlood flood-opacity="0.161" result="color-2"/>
      <feComposite operator="out" in="SourceGraphic" in2="blur-2"/>
      <feComposite operator="in" in="color-2"/>
      <feComposite operator="in" in2="SourceGraphic"/>
    </filter>
  </defs>
  <g id="Group_35696" data-name="Group 35696" transform="translate(-19.27 -417.937)">
    <g transform="matrix(1, 0, 0, 1, 19.27, 417.94)" filter="url(#Path_37339)">
      <path id="Path_37339-2" data-name="Path 37339" d="M48.453-41.5H29.335V-54.283q0-5.573-.613-6.956a2.633,2.633,0,0,0-2.7-1.382q-2.361,0-3,1.68t-.636,7.266v34.148q0,5.358.636,6.993A2.72,2.72,0,0,0,25.884-10.9a2.688,2.688,0,0,0,2.793-1.639q.658-1.639.658-7.693v-9.241H48.453v2.865q0,11.414-1.612,16.189T39.711-2.049a24.408,24.408,0,0,1-13.6,3.593q-8.4,0-13.85-3.042a14.793,14.793,0,0,1-7.22-8.424Q3.27-15.3,3.27-26.111V-47.59a95.506,95.506,0,0,1,.545-11.92,16.686,16.686,0,0,1,3.247-7.652,18.1,18.1,0,0,1,7.493-5.79,27.068,27.068,0,0,1,11.012-2.112q8.446,0,13.941,3.265t7.22,8.14q1.726,4.875,1.726,15.169Zm39.9-32.014L99.289,0H79.752L78.726-13.214H71.887L70.738,0H50.973l9.752-73.519ZM78.225-26.247q-1.451-12.491-2.912-30.879Q72.392-36.01,71.644-26.247Zm24.311-47.272h13.532q13.532,0,18.323,1.044a12.613,12.613,0,0,1,7.811,5.336q3.02,4.291,3.02,13.691,0,8.583-2.134,11.534t-8.4,3.542q5.676,1.408,7.629,3.769a11.256,11.256,0,0,1,2.429,4.337q.477,1.975.477,10.876V0H127.466V-24.431q0-5.9-.931-7.311t-4.882-1.408V0H102.536ZM121.654-60.94v16.348a8.414,8.414,0,0,0,4.518-.885q1.294-.885,1.294-5.744v-4.042q0-3.5-1.249-4.586T121.654-60.94ZM3.814,13.481H17.347q13.532,0,18.323,1.044a12.613,12.613,0,0,1,7.811,5.336q3.02,4.291,3.02,13.691,0,8.583-2.134,11.534t-8.4,3.542q5.676,1.408,7.629,3.769a11.256,11.256,0,0,1,2.429,4.337q.477,1.975.477,10.876V87H28.745V62.569q0-5.9-.931-7.311t-4.882-1.408V87H3.814ZM22.932,26.06V42.407a8.414,8.414,0,0,0,4.518-.885q1.294-.885,1.294-5.744V31.736q0-3.5-1.249-4.586T22.932,26.06ZM53.9,13.481H85.78V28.194H73.02V42.135H84.962V56.121H73.02V72.287H87.051V87H53.9Zm81.33,0V87H118.475L108.53,53.578V87H92.546V13.481H108.53l10.717,33.1v-33.1Zm46.182,0V28.194H170.061V87H150.943V28.194H139.636V13.481Zm33.683,0L226.029,87H206.491l-1.026-13.214h-6.838L197.477,87H177.713l9.752-73.519ZM204.964,60.753q-1.451-12.491-2.912-30.879-2.921,21.116-3.669,30.879Zm43.429-47.272V72.287h11.625V87H229.276V13.481ZM48.453,132.5H29.335V119.717q0-5.573-.613-6.956a2.633,2.633,0,0,0-2.7-1.382q-2.361,0-3,1.68t-.636,7.266v34.148q0,5.358.636,6.993a2.72,2.72,0,0,0,2.861,1.635,2.688,2.688,0,0,0,2.793-1.639q.658-1.639.658-7.693v-9.241H48.453v2.865q0,11.414-1.612,16.189t-7.129,8.368a24.408,24.408,0,0,1-13.6,3.593q-8.4,0-13.85-3.042a14.793,14.793,0,0,1-7.22-8.424Q3.27,158.7,3.27,147.889V126.41a95.506,95.506,0,0,1,.545-11.92,16.686,16.686,0,0,1,3.247-7.652,18.1,18.1,0,0,1,7.493-5.79,27.068,27.068,0,0,1,11.012-2.112q8.446,0,13.941,3.265t7.22,8.14q1.726,4.875,1.726,15.169Zm25.975-32.014v58.806H86.052V174H55.31V100.481Zm59.714,0v49.134a85.267,85.267,0,0,1-.545,11.739,15.933,15.933,0,0,1-3.224,6.948,16.731,16.731,0,0,1-7.061,5.4,26.575,26.575,0,0,1-10.331,1.839,29.062,29.062,0,0,1-11.625-2.18,17.5,17.5,0,0,1-7.538-5.676,15.722,15.722,0,0,1-2.952-7.379q-.454-3.883-.454-16.325v-43.5h19.118v55.128q0,4.813.522,6.153a2.047,2.047,0,0,0,2.112,1.34,2.21,2.21,0,0,0,2.339-1.476q.522-1.476.522-6.97V100.481Zm25.2,0v17.4a15.057,15.057,0,0,1,5.063-3.936,14.214,14.214,0,0,1,6.062-1.3,16.6,16.6,0,0,1,6.539,1.181,9.4,9.4,0,0,1,4.223,3.315,10.022,10.022,0,0,1,1.748,4.178,78.4,78.4,0,0,1,.3,8.719V157.2a40.537,40.537,0,0,1-.885,9.877,10.352,10.352,0,0,1-4.155,5.631,12.821,12.821,0,0,1-7.765,2.384,13.158,13.158,0,0,1-6.017-1.411,15.973,15.973,0,0,1-5.109-4.232L158.164,174H141V100.481Zm5.585,30.379q0-4.677-.59-6.108a2.267,2.267,0,0,0-2.316-1.43,2.088,2.088,0,0,0-2.18,1.249q-.5,1.249-.5,6.289v25.975q0,4.859.568,6.221a2.2,2.2,0,0,0,2.248,1.362,2.145,2.145,0,0,0,2.248-1.408q.522-1.408.522-6.766Z" transform="translate(-2.27 75.06)" fill="#fff"/>
    </g>
    <g data-type="innerShadowGroup">
      <path id="Path_37338-2" data-name="Path 37338" d="M48.453-41.5H29.335V-54.283q0-5.573-.613-6.956a2.633,2.633,0,0,0-2.7-1.382q-2.361,0-3,1.68t-.636,7.266v34.148q0,5.358.636,6.993A2.72,2.72,0,0,0,25.884-10.9a2.688,2.688,0,0,0,2.793-1.639q.658-1.639.658-7.693v-9.241H48.453v2.865q0,11.414-1.612,16.189T39.711-2.049a24.408,24.408,0,0,1-13.6,3.593q-8.4,0-13.85-3.042a14.793,14.793,0,0,1-7.22-8.424Q3.27-15.3,3.27-26.111V-47.59a95.506,95.506,0,0,1,.545-11.92,16.686,16.686,0,0,1,3.247-7.652,18.1,18.1,0,0,1,7.493-5.79,27.068,27.068,0,0,1,11.012-2.112q8.446,0,13.941,3.265t7.22,8.14q1.726,4.875,1.726,15.169Zm39.9-32.014L99.289,0H79.752L78.726-13.214H71.887L70.738,0H50.973l9.752-73.519ZM78.225-26.247q-1.451-12.491-2.912-30.879Q72.392-36.01,71.644-26.247Zm24.311-47.272h13.532q13.532,0,18.323,1.044a12.613,12.613,0,0,1,7.811,5.336q3.02,4.291,3.02,13.691,0,8.583-2.134,11.534t-8.4,3.542q5.676,1.408,7.629,3.769a11.256,11.256,0,0,1,2.429,4.337q.477,1.975.477,10.876V0H127.466V-24.431q0-5.9-.931-7.311t-4.882-1.408V0H102.536ZM121.654-60.94v16.348a8.414,8.414,0,0,0,4.518-.885q1.294-.885,1.294-5.744v-4.042q0-3.5-1.249-4.586T121.654-60.94ZM3.814,13.481H17.347q13.532,0,18.323,1.044a12.613,12.613,0,0,1,7.811,5.336q3.02,4.291,3.02,13.691,0,8.583-2.134,11.534t-8.4,3.542q5.676,1.408,7.629,3.769a11.256,11.256,0,0,1,2.429,4.337q.477,1.975.477,10.876V87H28.745V62.569q0-5.9-.931-7.311t-4.882-1.408V87H3.814ZM22.932,26.06V42.407a8.414,8.414,0,0,0,4.518-.885q1.294-.885,1.294-5.744V31.736q0-3.5-1.249-4.586T22.932,26.06ZM53.9,13.481H85.78V28.194H73.02V42.135H84.962V56.121H73.02V72.287H87.051V87H53.9Zm81.33,0V87H118.475L108.53,53.578V87H92.546V13.481H108.53l10.717,33.1v-33.1Zm46.182,0V28.194H170.061V87H150.943V28.194H139.636V13.481Zm33.683,0L226.029,87H206.491l-1.026-13.214h-6.838L197.477,87H177.713l9.752-73.519ZM204.964,60.753q-1.451-12.491-2.912-30.879-2.921,21.116-3.669,30.879Zm43.429-47.272V72.287h11.625V87H229.276V13.481ZM48.453,132.5H29.335V119.717q0-5.573-.613-6.956a2.633,2.633,0,0,0-2.7-1.382q-2.361,0-3,1.68t-.636,7.266v34.148q0,5.358.636,6.993a2.72,2.72,0,0,0,2.861,1.635,2.688,2.688,0,0,0,2.793-1.639q.658-1.639.658-7.693v-9.241H48.453v2.865q0,11.414-1.612,16.189t-7.129,8.368a24.408,24.408,0,0,1-13.6,3.593q-8.4,0-13.85-3.042a14.793,14.793,0,0,1-7.22-8.424Q3.27,158.7,3.27,147.889V126.41a95.506,95.506,0,0,1,.545-11.92,16.686,16.686,0,0,1,3.247-7.652,18.1,18.1,0,0,1,7.493-5.79,27.068,27.068,0,0,1,11.012-2.112q8.446,0,13.941,3.265t7.22,8.14q1.726,4.875,1.726,15.169Zm25.975-32.014v58.806H86.052V174H55.31V100.481Zm59.714,0v49.134a85.267,85.267,0,0,1-.545,11.739,15.933,15.933,0,0,1-3.224,6.948,16.731,16.731,0,0,1-7.061,5.4,26.575,26.575,0,0,1-10.331,1.839,29.062,29.062,0,0,1-11.625-2.18,17.5,17.5,0,0,1-7.538-5.676,15.722,15.722,0,0,1-2.952-7.379q-.454-3.883-.454-16.325v-43.5h19.118v55.128q0,4.813.522,6.153a2.047,2.047,0,0,0,2.112,1.34,2.21,2.21,0,0,0,2.339-1.476q.522-1.476.522-6.97V100.481Zm7.4,0h19.072q9.037,0,13.691,1.407a13.572,13.572,0,0,1,7.515,5.7q2.861,4.288,2.861,13.818,0,6.444-2.021,8.985t-7.969,3.9q6.63,1.5,8.991,4.975t2.361,10.655v6.815q0,7.452-1.7,11.041a9.182,9.182,0,0,1-5.427,4.907Q175.192,174,163.658,174H141.543Zm19.118,12.579v16.348q1.226-.045,1.907-.045,2.815,0,3.587-1.385t.772-7.924a12.809,12.809,0,0,0-.636-4.836,3.048,3.048,0,0,0-1.657-1.748A14.735,14.735,0,0,0,160.661,113.06Zm0,27.791v20.571q4.042-.136,5.154-1.271t1.113-5.585v-6.857q0-4.723-1-5.722T160.661,140.851Z" transform="translate(16 526)" fill="#fd6001"/>
      <g transform="matrix(1, 0, 0, 1, 19.27, 417.94)" filter="url(#Path_37338)">
        <path id="Path_37338-3" data-name="Path 37338" d="M48.453-41.5H29.335V-54.283q0-5.573-.613-6.956a2.633,2.633,0,0,0-2.7-1.382q-2.361,0-3,1.68t-.636,7.266v34.148q0,5.358.636,6.993A2.72,2.72,0,0,0,25.884-10.9a2.688,2.688,0,0,0,2.793-1.639q.658-1.639.658-7.693v-9.241H48.453v2.865q0,11.414-1.612,16.189T39.711-2.049a24.408,24.408,0,0,1-13.6,3.593q-8.4,0-13.85-3.042a14.793,14.793,0,0,1-7.22-8.424Q3.27-15.3,3.27-26.111V-47.59a95.506,95.506,0,0,1,.545-11.92,16.686,16.686,0,0,1,3.247-7.652,18.1,18.1,0,0,1,7.493-5.79,27.068,27.068,0,0,1,11.012-2.112q8.446,0,13.941,3.265t7.22,8.14q1.726,4.875,1.726,15.169Zm39.9-32.014L99.289,0H79.752L78.726-13.214H71.887L70.738,0H50.973l9.752-73.519ZM78.225-26.247q-1.451-12.491-2.912-30.879Q72.392-36.01,71.644-26.247Zm24.311-47.272h13.532q13.532,0,18.323,1.044a12.613,12.613,0,0,1,7.811,5.336q3.02,4.291,3.02,13.691,0,8.583-2.134,11.534t-8.4,3.542q5.676,1.408,7.629,3.769a11.256,11.256,0,0,1,2.429,4.337q.477,1.975.477,10.876V0H127.466V-24.431q0-5.9-.931-7.311t-4.882-1.408V0H102.536ZM121.654-60.94v16.348a8.414,8.414,0,0,0,4.518-.885q1.294-.885,1.294-5.744v-4.042q0-3.5-1.249-4.586T121.654-60.94ZM3.814,13.481H17.347q13.532,0,18.323,1.044a12.613,12.613,0,0,1,7.811,5.336q3.02,4.291,3.02,13.691,0,8.583-2.134,11.534t-8.4,3.542q5.676,1.408,7.629,3.769a11.256,11.256,0,0,1,2.429,4.337q.477,1.975.477,10.876V87H28.745V62.569q0-5.9-.931-7.311t-4.882-1.408V87H3.814ZM22.932,26.06V42.407a8.414,8.414,0,0,0,4.518-.885q1.294-.885,1.294-5.744V31.736q0-3.5-1.249-4.586T22.932,26.06ZM53.9,13.481H85.78V28.194H73.02V42.135H84.962V56.121H73.02V72.287H87.051V87H53.9Zm81.33,0V87H118.475L108.53,53.578V87H92.546V13.481H108.53l10.717,33.1v-33.1Zm46.182,0V28.194H170.061V87H150.943V28.194H139.636V13.481Zm33.683,0L226.029,87H206.491l-1.026-13.214h-6.838L197.477,87H177.713l9.752-73.519ZM204.964,60.753q-1.451-12.491-2.912-30.879-2.921,21.116-3.669,30.879Zm43.429-47.272V72.287h11.625V87H229.276V13.481ZM48.453,132.5H29.335V119.717q0-5.573-.613-6.956a2.633,2.633,0,0,0-2.7-1.382q-2.361,0-3,1.68t-.636,7.266v34.148q0,5.358.636,6.993a2.72,2.72,0,0,0,2.861,1.635,2.688,2.688,0,0,0,2.793-1.639q.658-1.639.658-7.693v-9.241H48.453v2.865q0,11.414-1.612,16.189t-7.129,8.368a24.408,24.408,0,0,1-13.6,3.593q-8.4,0-13.85-3.042a14.793,14.793,0,0,1-7.22-8.424Q3.27,158.7,3.27,147.889V126.41a95.506,95.506,0,0,1,.545-11.92,16.686,16.686,0,0,1,3.247-7.652,18.1,18.1,0,0,1,7.493-5.79,27.068,27.068,0,0,1,11.012-2.112q8.446,0,13.941,3.265t7.22,8.14q1.726,4.875,1.726,15.169Zm25.975-32.014v58.806H86.052V174H55.31V100.481Zm59.714,0v49.134a85.267,85.267,0,0,1-.545,11.739,15.933,15.933,0,0,1-3.224,6.948,16.731,16.731,0,0,1-7.061,5.4,26.575,26.575,0,0,1-10.331,1.839,29.062,29.062,0,0,1-11.625-2.18,17.5,17.5,0,0,1-7.538-5.676,15.722,15.722,0,0,1-2.952-7.379q-.454-3.883-.454-16.325v-43.5h19.118v55.128q0,4.813.522,6.153a2.047,2.047,0,0,0,2.112,1.34,2.21,2.21,0,0,0,2.339-1.476q.522-1.476.522-6.97V100.481Zm7.4,0h19.072q9.037,0,13.691,1.407a13.572,13.572,0,0,1,7.515,5.7q2.861,4.288,2.861,13.818,0,6.444-2.021,8.985t-7.969,3.9q6.63,1.5,8.991,4.975t2.361,10.655v6.815q0,7.452-1.7,11.041a9.182,9.182,0,0,1-5.427,4.907Q175.192,174,163.658,174H141.543Zm19.118,12.579v16.348q1.226-.045,1.907-.045,2.815,0,3.587-1.385t.772-7.924a12.809,12.809,0,0,0-.636-4.836,3.048,3.048,0,0,0-1.657-1.748A14.735,14.735,0,0,0,160.661,113.06Zm0,27.791v20.571q4.042-.136,5.154-1.271t1.113-5.585v-6.857q0-4.723-1-5.722T160.661,140.851Z" transform="translate(-3.27 108.06)" fill="#fff"/>
      </g>
    </g>
  </g>
</svg>
