<svg xmlns="http://www.w3.org/2000/svg" xmlns:xlink="http://www.w3.org/1999/xlink" width="15" height="15" viewBox="0 0 15 15">
  <defs>
    <clipPath id="clip-path">
      <rect id="Rectangle_6814" data-name="Rectangle 6814" width="15" height="15" fill="#fff"/>
    </clipPath>
  </defs>
  <g id="Mask_Group_34" data-name="Mask Group 34" clip-path="url(#clip-path)">
    <g id="Group_35413" data-name="Group 35413" transform="translate(-73 -115.645)">
      <g id="noun-filter-4547015" transform="translate(73 117.422)">
        <path id="Path_37231" data-name="Path 37231" d="M120.347,99.716a3.779,3.779,0,0,1,.711.046,2.03,2.03,0,0,1,1.578,1.612,3.775,3.775,0,0,1,.032.711v.108a3.781,3.781,0,0,1-.047.711,2.03,2.03,0,0,1-1.612,1.578,3.788,3.788,0,0,1-.711.032h-.108a3.78,3.78,0,0,1-.711-.046,2.03,2.03,0,0,1-1.578-1.612,1.775,1.775,0,0,1-.025-.206H111.39a.554.554,0,1,1,0-1.107h6.5a1.814,1.814,0,0,1,.031-.217,2.03,2.03,0,0,1,1.612-1.578,3.778,3.778,0,0,1,.711-.032Zm.483,1.13a8.535,8.535,0,0,0-1.1-.012.923.923,0,0,0-.733.717,8.511,8.511,0,0,0-.012,1.1.923.923,0,0,0,.717.733,8.539,8.539,0,0,0,1.1.012.923.923,0,0,0,.733-.717,8.508,8.508,0,0,0,.012-1.1A.923.923,0,0,0,120.83,100.846Z" transform="translate(-110.836 -99.713)" fill="#191919" fill-rule="evenodd"/>
        <path id="Path_37232" data-name="Path 37232" d="M509.532,158.607a.554.554,0,0,0,0-1.107h-1.476a.554.554,0,1,0,0,1.107Z" transform="translate(-494.953 -155.672)" fill="#191919"/>
        <path id="Path_37233" data-name="Path 37233" d="M111.394,368.607a.554.554,0,1,1,0-1.107h1.476a.554.554,0,0,1,0,1.107Z" transform="translate(-110.84 -359.028)" fill="#191919"/>
        <path id="Path_37234" data-name="Path 37234" d="M227.621,311.541h-6.449a1.671,1.671,0,0,0-.022-.167,2.03,2.03,0,0,0-1.578-1.612,3.781,3.781,0,0,0-.711-.047h-.108a3.773,3.773,0,0,0-.711.031,2.03,2.03,0,0,0-1.612,1.578,3.782,3.782,0,0,0-.046.711v.108a3.781,3.781,0,0,0,.032.711,2.03,2.03,0,0,0,1.578,1.612,3.778,3.778,0,0,0,.711.046h.108a3.787,3.787,0,0,0,.711-.031,2.03,2.03,0,0,0,1.612-1.578,1.887,1.887,0,0,0,.034-.256h6.453a.554.554,0,1,0,0-1.107Zm-8.825-.719a3.447,3.447,0,0,1,.549.024.923.923,0,0,1,.717.732,8.535,8.535,0,0,1-.012,1.1.923.923,0,0,1-.733.717,8.555,8.555,0,0,1-1.1-.012.923.923,0,0,1-.717-.733,8.533,8.533,0,0,1,.012-1.1.923.923,0,0,1,.733-.717A3.46,3.46,0,0,1,218.8,310.823Z" transform="translate(-213.042 -303.069)" fill="#191919" fill-rule="evenodd"/>
      </g>
    </g>
  </g>
</svg>
