<?xml version="1.0" encoding="UTF-8" standalone="no"?>
<svg
   xmlns:dc="http://purl.org/dc/elements/1.1/"
   xmlns:cc="http://creativecommons.org/ns#"
   xmlns:rdf="http://www.w3.org/1999/02/22-rdf-syntax-ns#"
   xmlns:svg="http://www.w3.org/2000/svg"
   xmlns="http://www.w3.org/2000/svg"
   viewBox="0 0 349.24933 107.40027"
   height="107.40027"
   width="349.24933"
   xml:space="preserve"
   id="svg2"
   version="1.1"><metadata
     id="metadata8"><rdf:RDF><cc:Work
         rdf:about=""><dc:format>image/svg+xml</dc:format><dc:type
           rdf:resource="http://purl.org/dc/dcmitype/StillImage" /></cc:Work></rdf:RDF></metadata><defs
     id="defs6"><clipPath
       id="clipPath18"
       clipPathUnits="userSpaceOnUse"><path
         id="path16"
         d="M 0,80.55 H 261.937 V 0 H 0 Z" /></clipPath></defs><g
     transform="matrix(1.3333333,0,0,-1.3333333,0,107.40027)"
     id="g10"><g
       id="g12"><g
         clip-path="url(#clipPath18)"
         id="g14"><g
           transform="translate(115.858,29.1651)"
           id="g20"><path
             id="path22"
             style="fill:#231f20;fill-opacity:1;fill-rule:nonzero;stroke:none"
             d="m 0,0 c -0.18,1.41 -0.399,2.836 -0.628,4.296 l -3.438,24.599 -7.315,0.037 7.101,-45.139 7.066,-0.036 7.24,45.067 -5.712,0.029 z" /></g><g
           transform="translate(127.7345,12.877)"
           id="g24"><path
             id="path26"
             style="fill:#231f20;fill-opacity:1;fill-rule:nonzero;stroke:none"
             d="M 0,0 6.926,-0.034 7.158,45.067 0.231,45.102 Z" /></g><g
           transform="translate(147.9723,36.7139)"
           id="g28"><path
             id="path30"
             style="fill:#231f20;fill-opacity:1;fill-rule:nonzero;stroke:none"
             d="m 0,0 -2.322,0.011 0.066,12.987 2.55,-0.013 C 2.181,12.976 3.113,10.872 3.091,6.677 3.068,2.209 2.035,-0.011 0,0 M 5.979,19.477 C 4.732,20.586 2.907,21.15 0.504,21.162 l -9.65,0.048 -0.23,-45.102 7.039,-0.035 0.084,16.387 3.913,-0.02 c 2.5,-0.011 4.519,1.296 6.027,3.936 1.516,2.63 2.287,6.099 2.309,10.392 0.014,2.828 -0.35,5.367 -1.064,7.644 -0.719,2.272 -1.704,3.959 -2.953,5.065" /></g><g
           transform="translate(257.5211,65.4522)"
           id="g32"><path
             id="path34"
             style="fill:#231f20;fill-opacity:1;fill-rule:nonzero;stroke:none"
             d="m 0,0 c -1.708,-1.229 -3.752,-2.256 -6.25,-3.139 -2.442,-0.857 -5.141,-1.509 -8.25,-1.996 -1.748,-0.272 -3.601,-0.482 -5.508,-0.623 -0.881,-0.06 -1.768,-0.102 -2.654,-0.144 -0.449,-0.021 -0.899,-0.042 -1.346,-0.065 l -3.658,-0.159 c -0.722,-0.024 -1.459,-0.048 -2.183,-0.066 -2.255,-0.053 -4.456,-0.079 -6.539,-0.079 -0.951,0 -1.903,0.005 -2.853,0.017 l -0.145,10e-4 c -1.393,0.013 -2.797,0.026 -4.195,0.06 -0.753,0.02 -1.509,0.054 -2.293,0.09 l -0.541,0.024 0.005,0.007 c 0.135,0.215 0.261,0.415 0.366,0.628 0.194,0.375 0.446,0.874 0.654,1.379 0.06,0.124 0.12,0.271 0.088,0.407 l 1.305,-0.017 c 1.077,-0.016 2.155,-0.032 3.227,-0.033 l 1.039,-0.003 c 1.467,0 2.685,0.019 3.831,0.058 1.564,0.044 3.154,0.126 4.691,0.206 l 0.87,0.045 c 2.453,0.124 4.999,0.36 7.566,0.701 2.832,0.381 6.169,0.927 9.443,2.086 0.087,0.029 0.182,0.043 0.293,0.043 0.095,0 0.187,-0.01 0.28,-0.019 0.074,-0.007 0.149,-0.014 0.224,-0.018 0.594,-0.027 1.188,-0.042 1.782,-0.042 0.657,0 1.295,0.019 1.896,0.057 1.884,0.129 3.75,0.432 5.544,0.901 C -1.082,0.889 1.021,1.74 2.944,2.838 2.221,1.83 1.252,0.896 0,0 m -3.006,-4.265 c -2.485,-1.76 -5.348,-3.102 -8.75,-4.101 -2.217,-0.647 -4.567,-1.116 -7.184,-1.434 -1.817,-0.215 -3.692,-0.35 -5.575,-0.403 -0.88,-0.027 -1.755,-0.06 -2.631,-0.093 -0.86,-0.032 -1.719,-0.064 -2.581,-0.092 l -0.239,-0.007 c -0.884,-0.026 -1.771,-0.053 -2.667,-0.055 l -4.684,-0.008 c -1.238,0 -2.476,0.005 -3.717,0.023 -1.366,0.017 -2.76,0.078 -4.109,0.137 l -1.409,0.06 c -1.547,0.06 -3.205,0.182 -5.047,0.372 1.684,0.399 3.134,1.3 4.327,2.684 0.224,0.255 0.395,0.337 0.703,0.337 l 0.094,-0.003 c 1.724,-0.085 3.48,-0.143 5.22,-0.173 1.146,-0.018 2.298,-0.022 3.452,-0.022 l 2.687,0.003 c 0.948,0.004 1.914,0.012 2.868,0.028 l 4.496,0.124 c 1.239,0.037 2.469,0.08 3.702,0.138 1.93,0.085 4.172,0.195 6.356,0.423 3.113,0.327 5.842,0.796 8.344,1.436 3.1,0.796 5.678,1.781 7.882,3.01 1.164,0.65 2.211,1.375 3.126,2.163 -1.234,-1.704 -2.767,-3.199 -4.664,-4.547 m -3.731,-5.214 c -2.806,-1.07 -5.847,-1.944 -9.288,-2.668 -2.703,-0.565 -5.454,-0.986 -8.181,-1.251 -1.253,-0.128 -2.532,-0.212 -3.77,-0.293 l -0.974,-0.065 c -1.387,-0.097 -2.85,-0.144 -4.473,-0.144 -0.48,0 -0.961,0.004 -1.441,0.011 -1.662,0.024 -3.368,0.1 -5.019,0.173 l -0.381,0.018 c -3.468,0.161 -6.882,0.58 -9.468,0.928 -0.505,0.066 -1.005,0.145 -1.508,0.224 l -0.396,0.062 0.032,0.099 c 0.054,0.175 0.108,0.345 0.157,0.519 0.131,0.464 0.088,0.57 -0.329,0.813 -0.284,0.164 -0.509,0.321 -0.701,0.487 0.16,-0.017 0.318,-0.033 0.477,-0.044 l 0.869,-0.077 c 1.055,-0.093 2.111,-0.186 3.163,-0.259 2.187,-0.152 4.416,-0.237 6.816,-0.258 l 1.463,-0.014 c 1.387,-0.014 2.775,-0.028 4.162,-0.028 l 0.522,-10e-4 c 1.034,0 2.068,0.015 3.109,0.039 1.006,0.02 2.016,0.052 3.025,0.084 l 1.112,0.036 c 0.298,0.008 0.597,0.015 0.896,0.022 0.484,0.011 0.97,0.022 1.454,0.042 l 0.557,0.023 c 0.743,0.029 1.486,0.058 2.229,0.11 l 0.51,0.037 c 1.159,0.082 2.358,0.167 3.534,0.315 1.151,0.149 2.333,0.212 3.476,0.273 0.675,0.036 1.349,0.072 2.021,0.124 2.152,0.18 4.262,0.367 6.345,0.663 m 1.025,-0.454 c -0.034,-0.024 -0.068,-0.047 -0.102,-0.07 -1.525,-1.004 -3.253,-1.88 -5.602,-2.836 -3.916,-1.605 -8.014,-2.78 -11.859,-3.811 -2.44,-0.644 -5.052,-1.111 -7.764,-1.387 -1.481,-0.151 -2.955,-0.24 -4.461,-0.326 -1.054,-0.06 -2.129,-0.09 -3.288,-0.09 -0.865,0 -1.754,0.016 -2.714,0.051 -2.79,0.101 -5.558,0.318 -8.227,0.644 -2.016,0.251 -3.968,0.551 -5.804,0.893 0.791,0.362 1.435,0.799 1.999,1.352 0.612,0.611 1.132,1.354 1.587,2.268 l 0.366,-0.052 c 0.245,-0.035 0.487,-0.07 0.727,-0.1 0.659,-0.081 1.316,-0.164 1.972,-0.247 1.552,-0.197 3.156,-0.4 4.744,-0.554 1.643,-0.163 3.41,-0.279 5.73,-0.376 1.722,-0.066 3.127,-0.097 4.42,-0.097 0.373,0 0.745,0.003 1.118,0.008 1.794,0.018 3.611,0.115 5.368,0.209 2.481,0.132 5.032,0.411 7.802,0.851 5.331,0.839 9.921,2.042 13.988,3.67 m -14.861,-8.396 c 0.45,0 0.9,0.005 1.351,0.012 1.788,0.028 3.569,0.122 5.306,0.277 -1.493,-0.672 -3.104,-1.248 -4.914,-1.756 -3.18,-0.904 -6.45,-1.53 -9.721,-1.86 -1.469,-0.149 -3.206,-0.313 -4.938,-0.393 -1.498,-0.078 -2.812,-0.116 -4.018,-0.116 -0.791,0 -1.563,0.017 -2.296,0.049 -0.459,0.024 -0.92,0.039 -1.382,0.055 -0.611,0.021 -1.221,0.041 -1.831,0.081 -1.379,0.105 -2.779,0.211 -4.146,0.37 -3.121,0.358 -6.317,0.93 -9.501,1.701 -0.044,0.011 -0.088,0.021 -0.134,0.033 0,0 0.775,1.086 0.986,1.378 0.051,0.081 0.087,0.157 0.124,0.235 l 0.029,0.061 c 0.055,0.13 0.104,0.288 0.02,0.43 -0.026,0.044 -0.06,0.079 -0.101,0.106 2.577,-0.566 5.266,-0.997 8.011,-1.282 1.589,-0.169 2.926,-0.297 4.284,-0.377 1.509,-0.096 3.009,-0.146 4.456,-0.146 0.655,0 1.311,0.01 1.968,0.031 4.184,0.133 7.879,0.585 11.298,1.378 0.084,0.021 0.177,0.032 0.271,0.032 0.066,0 0.132,-0.006 0.194,-0.016 1.348,-0.195 2.792,-0.283 4.684,-0.283 m -0.846,-4.399 c -2.959,-1.12 -6.066,-1.892 -9.499,-2.357 -1.848,-0.257 -3.479,-0.4 -4.987,-0.436 l -0.905,-0.02 c -0.821,-0.018 -1.642,-0.036 -2.463,-0.036 -0.379,0 -0.758,0.004 -1.138,0.014 -1.257,0.033 -2.547,0.118 -3.794,0.199 l -0.999,0.064 c -2.187,0.136 -4.444,0.364 -6.903,0.699 -3.358,0.444 -6.398,1.016 -9.282,1.745 1.437,0.399 2.702,1.114 3.771,2.131 0.133,0.122 0.222,0.147 0.312,0.147 0.048,0 0.102,-0.007 0.165,-0.024 2.92,-0.725 5.982,-1.293 9.101,-1.687 1.752,-0.221 3.569,-0.388 5.399,-0.497 1.579,-0.092 3.248,-0.137 5.102,-0.137 0.545,0 1.09,0.004 1.635,0.011 3.859,0.062 7.403,0.369 10.836,0.937 3.993,0.654 7.414,1.561 10.447,2.771 -1.988,-1.389 -4.222,-2.546 -6.798,-3.524 m -10.656,-4.115 0.67,-0.083 c 1.602,-0.191 3.196,-0.377 4.795,-0.563 -4.041,-0.623 -8.244,-0.939 -12.512,-0.939 -0.595,0 -1.19,0.006 -1.784,0.017 -7.993,0.148 -15.311,1.292 -22.361,3.494 l 0.074,0.079 c 0.231,0.244 0.454,0.48 0.662,0.719 0.193,0.222 0.317,0.381 0.271,0.565 -0.01,0.046 -0.031,0.085 -0.058,0.121 3.234,-0.848 6.618,-1.495 10.066,-1.926 2.193,-0.266 4.263,-0.489 6.329,-0.682 1.251,-0.107 2.528,-0.165 3.761,-0.22 l 0.606,-0.027 c 0.966,-0.038 2.236,-0.081 3.508,-0.088 h 0.095 c 0.492,0 0.981,0.018 1.471,0.037 0.318,0.011 0.635,0.023 0.953,0.03 l 0.094,0.003 c 0.081,0 0.146,-0.007 0.2,-0.021 1.039,-0.258 2.118,-0.389 3.16,-0.516 m -2.058,-3.761 c -2.687,-0.641 -5.533,-1.115 -8.459,-1.411 -1.825,-0.185 -3.614,-0.351 -5.432,-0.351 -0.286,0 -0.571,0.004 -0.856,0.013 -0.977,0.024 -2.011,0.086 -3.162,0.19 -5.635,0.536 -11.337,1.774 -16.947,3.68 -0.148,0.054 -0.299,0.108 -0.45,0.161 0.051,0.096 0.083,0.196 0.049,0.3 -0.053,0.17 -0.238,0.234 -0.434,0.302 -0.186,0.064 -0.372,0.122 -0.556,0.18 -0.035,0.011 -0.07,0.021 -0.104,0.032 1.525,0.019 2.905,0.271 4.212,0.77 0.799,0.315 1.464,0.668 2.033,1.078 0.112,0.079 0.192,0.11 0.284,0.11 0.054,0 0.116,-0.011 0.191,-0.033 3.318,-1.064 6.913,-1.916 10.682,-2.529 2.223,-0.358 4.487,-0.628 6.922,-0.824 2.166,-0.176 4.384,-0.262 6.78,-0.262 0.598,0 1.196,0.005 1.793,0.016 2.777,0.038 5.314,0.197 7.753,0.486 0.973,0.11 1.935,0.241 2.897,0.376 -2.163,-0.899 -4.522,-1.648 -7.196,-2.284 m -3.978,-3.624 c 0.296,-0.038 0.595,-0.063 0.897,-0.085 -0.167,-0.055 -0.335,-0.106 -0.504,-0.154 -1.547,-0.426 -3.26,-0.707 -5.235,-0.858 -1.131,-0.084 -2.251,-0.127 -3.327,-0.127 -0.477,0 -0.952,0.008 -1.426,0.025 -1.458,0.049 -2.975,0.145 -4.509,0.283 -2.722,0.239 -5.573,0.654 -8.973,1.305 -4.243,0.81 -8.274,1.94 -11.985,3.36 1.099,0.458 2.027,0.943 2.86,1.496 0.072,0.046 0.12,0.053 0.153,0.053 0.058,0 0.126,-0.022 0.211,-0.049 2.593,-0.935 5.132,-1.719 7.566,-2.339 2.815,-0.721 5.433,-1.224 8.007,-1.538 1.78,-0.218 3.371,-0.325 4.862,-0.325 l 0.906,0.004 c 1.831,0.006 3.724,0.012 5.603,0.245 0.037,0.005 0.071,0.007 0.107,0.007 0.124,0 0.252,-0.027 0.416,-0.088 1.605,-0.651 2.996,-1.038 4.371,-1.215 m -9.5,-3.852 c -1.631,-0.271 -3.298,-0.432 -4.955,-0.478 -0.375,-0.011 -0.747,-0.018 -1.12,-0.018 -4.151,0 -8.384,0.751 -12.582,2.23 -1.986,0.703 -4.104,1.487 -6.145,2.451 -1.301,0.606 -2.604,1.352 -4.203,2.406 0.71,0.173 1.397,0.343 2.078,0.527 0.075,0.017 0.144,0.026 0.21,0.026 0.091,0 0.177,-0.018 0.271,-0.055 4.305,-1.674 8.987,-2.961 13.917,-3.825 1.75,-0.317 4.065,-0.712 6.444,-0.964 1.693,-0.17 3.214,-0.288 4.649,-0.362 1.108,-0.051 2.166,-0.077 3.149,-0.077 0.428,0 0.855,0.004 1.28,0.015 1.911,0.053 3.635,0.228 5.23,0.535 -2.655,-1.138 -5.416,-1.947 -8.223,-2.411 m -25.554,-0.059 1.776,2.909 c 0,0 0.243,-0.094 0.337,-0.132 2.342,-0.963 5.452,-2.171 8.74,-2.987 2.444,-0.596 4.826,-0.975 7.08,-1.126 0.679,-0.047 1.359,-0.07 2.038,-0.093 0.16,-0.006 0.32,-0.011 0.48,-0.017 -1.62,-0.526 -3.365,-0.858 -5.193,-0.987 -0.779,-0.057 -1.534,-0.091 -2.247,-0.102 h -0.095 c -2.426,0 -4.88,0.296 -7.502,0.904 -1.721,0.402 -3.454,0.919 -5.296,1.583 z m 19.177,-3.334 c -1.294,-0.591 -2.393,-1.057 -3.553,-1.411 -1.998,-0.597 -4.054,-0.954 -6.107,-1.06 -0.462,-0.025 -0.923,-0.037 -1.383,-0.037 -2.188,0 -4.363,0.283 -6.466,0.839 -0.81,0.221 -1.612,0.468 -2.414,0.715 -0.442,0.136 -0.883,0.272 -1.326,0.403 -0.052,0.019 -0.109,0.043 -0.171,0.07 0.521,0.891 1.044,1.774 1.573,2.668 l 0.262,0.443 0.029,-0.008 c 0.088,-0.025 0.168,-0.047 0.239,-0.074 2.13,-0.752 4.033,-1.307 5.819,-1.7 2.08,-0.455 4.155,-0.726 6.171,-0.805 0.411,-0.016 0.821,-0.025 1.229,-0.025 2.469,0 4.751,0.3 6.976,0.917 0.305,0.085 0.606,0.183 0.92,0.286 -0.51,-0.511 -1.094,-0.906 -1.798,-1.221 m -19.262,-3.391 c 0.206,-0.144 0.419,-0.276 0.64,-0.406 -1.421,0.298 -3.386,0.807 -4.125,1.083 0,0 0.848,1.439 1.03,1.749 0.073,-0.091 0.145,-0.182 0.216,-0.272 0.262,-0.334 0.51,-0.648 0.792,-0.942 0.45,-0.444 0.935,-0.85 1.447,-1.212 m -3.92,-2.16 c -0.437,0 -0.827,0.012 -1.162,0.039 0.368,0.68 0.753,1.331 1.158,2.013 l 0.037,0.063 c 2.263,-0.684 4.234,-1.154 6.125,-1.457 -1.356,-0.356 -4.042,-0.658 -6.158,-0.658 m -2.746,-0.242 c -0.798,0.446 -1.592,0.888 -2.407,1.34 -0.636,-1.03 -1.274,-2.035 -1.93,-3.079 -0.732,0.316 -1.249,0.87 -1.984,1.217 -0.624,-0.999 -1.26,-2.007 -1.92,-3.039 -0.722,0.478 -1.131,1.145 -1.656,1.795 -0.598,-0.938 -1.19,-1.861 -1.809,-2.82 -0.136,0.115 -0.239,0.192 -0.317,0.284 -0.247,0.301 -0.328,1.145 -0.122,1.46 0.577,0.937 1.164,1.859 1.748,2.776 0.021,0.033 0.053,0.055 0.098,0.098 0.02,-0.283 -0.022,-0.555 0.063,-0.791 0.076,-0.246 0.285,-0.458 0.473,-0.759 0.661,1.047 1.279,2.024 1.928,3.054 0.062,-0.126 0.1,-0.218 0.127,-0.31 0.12,-0.394 0.295,-0.747 0.678,-0.999 0.273,-0.18 0.514,-0.383 0.794,-0.596 0.591,0.944 1.234,1.967 1.885,2.993 0.663,-0.422 1.177,-0.97 1.952,-1.235 0.646,1.011 1.291,2.034 1.926,3.042 -0.618,0.407 -1.233,0.818 -1.875,1.238 0.49,0.776 0.956,1.509 1.423,2.264 0.626,-0.438 1.224,-0.849 1.865,-1.294 -0.426,-0.684 -0.889,-1.398 -1.367,-2.159 0.763,-0.439 1.475,-0.862 2.239,-1.302 -0.605,-1.066 -1.2,-2.099 -1.812,-3.178 m -4.003,-6.144 c -0.794,0.445 -1.527,0.862 -2.309,1.307 -0.641,-1.026 -1.283,-2.034 -1.952,-3.096 0.722,-0.403 1.405,-0.789 2.13,-1.197 -0.743,-0.999 -1.482,-1.966 -2.223,-2.949 -0.606,0.38 -1.183,0.741 -1.788,1.121 0.623,1.002 1.232,1.979 1.868,2.996 -0.67,0.439 -1.293,0.847 -1.945,1.264 -0.611,-0.977 -1.215,-1.942 -1.859,-2.969 -0.292,0.351 -0.519,0.702 -0.762,1.033 -0.248,0.333 -0.492,0.67 -0.754,1.021 0.616,0.987 1.22,1.952 1.825,2.93 0.056,-0.022 0.084,-0.028 0.089,-0.043 0.137,-0.596 0.471,-1.072 0.987,-1.452 0.167,-0.126 0.301,-0.295 0.482,-0.461 0.66,1.034 1.295,2.04 1.959,3.078 0.643,-0.392 1.151,-0.972 1.951,-1.227 0.651,1.008 1.287,2.013 1.953,3.042 0.798,-0.454 1.58,-0.893 2.385,-1.35 -0.682,-1.03 -1.347,-2.029 -2.037,-3.048 m -6.508,-5.33 c -0.068,0.038 -0.131,0.05 -0.173,0.087 -0.471,0.423 -0.945,0.847 -1.413,1.269 -0.098,0.093 -0.211,0.204 -0.013,0.322 0.619,-0.401 1.227,-0.818 1.867,-1.25 -0.07,-0.107 -0.158,-0.259 -0.268,-0.428 m -3.261,3.688 c -0.208,0.274 -0.322,0.583 -0.428,0.885 -0.042,0.092 -0.063,0.184 -0.09,0.282 -0.075,0.258 -0.075,0.258 0.128,0.56 0.179,-0.562 0.322,-1.096 0.48,-1.63 0.004,-0.021 -0.048,-0.048 -0.09,-0.097 m 2.49,7.702 c -0.296,-0.411 -0.626,-0.814 -0.933,-1.226 -0.027,0.021 -0.065,0.04 -0.09,0.061 0.332,0.49 0.662,0.971 0.984,1.453 0.027,-0.008 0.054,-0.014 0.068,-0.027 -0.003,-0.086 0.021,-0.189 -0.029,-0.261 m -3.579,0.556 c 0.062,0.05 0.116,0.093 0.157,0.126 0.034,-0.037 0.071,-0.069 0.103,-0.109 0.666,1.035 1.29,2.034 1.953,3.069 0.572,-0.46 0.568,-1.161 0.974,-1.703 0.645,1.021 1.286,2.028 1.949,3.083 0.146,-0.461 0.28,-0.862 0.431,-1.332 0.656,0.983 1.282,1.908 1.903,2.837 0.014,-0.007 0.036,-0.013 0.052,-0.013 0.038,-0.371 0.078,-0.735 0.1,-1.112 0.008,-0.069 -0.046,-0.16 -0.085,-0.225 -0.61,-0.808 -1.229,-1.61 -1.838,-2.417 -0.028,0.006 -0.05,0.007 -0.077,0.007 -0.029,0.239 -0.057,0.481 -0.076,0.721 -0.028,0.006 -0.044,0.011 -0.074,0.021 -0.61,-0.969 -1.215,-1.93 -1.827,-2.899 -0.035,0.001 -0.055,0.007 -0.077,0.016 -0.096,0.353 -0.191,0.703 -0.302,1.117 -0.392,-0.473 -0.676,-0.958 -1,-1.419 -0.308,-0.462 -0.624,-0.929 -0.936,-1.397 -0.45,0.554 -0.89,1.091 -1.33,1.629 m 1.443,43.802 c 1.267,-0.693 2.452,-1.483 3.59,-2.357 -0.639,-1.016 -1.265,-2.027 -1.905,-3.032 -1.025,0.664 -2.034,1.319 -3.057,1.98 l -0.007,1.178 c 0.459,0.739 0.915,1.473 1.379,2.231 m 3.189,-0.231 c 0.25,0.174 0.498,0.347 0.734,0.525 1.315,0.974 2.63,1.954 3.944,2.935 1.35,1.006 2.7,2.013 4.055,3.016 1.277,0.946 2.725,2.018 4.279,2.924 1.043,0.616 2.261,0.998 3.725,1.166 0.612,0.069 1.251,0.104 1.898,0.104 1.356,0 2.787,-0.145 4.504,-0.457 0.965,-0.177 1.911,-0.4 2.943,-0.692 -2.462,-1.007 -4.582,-1.66 -6.66,-2.051 -1.093,-0.211 -1.979,-0.309 -2.791,-0.309 -0.118,0 -0.237,10e-4 -0.356,0.006 -0.418,0.013 -0.838,0.07 -1.244,0.125 -0.16,0.022 -0.321,0.044 -0.482,0.064 -0.096,0.022 -0.145,0.033 -0.197,0.038 -0.064,0.012 -0.126,0.018 -0.176,0.018 -0.276,0 -0.355,-0.202 -0.406,-0.336 l -0.044,-0.127 c -0.017,-0.05 -0.033,-0.101 -0.054,-0.149 -0.404,-1.167 -0.947,-2.093 -1.666,-2.84 -0.834,-0.884 -1.865,-1.331 -3.067,-1.331 0,0 -0.109,0.001 -0.11,0.001 -0.399,0 -0.634,-0.113 -0.845,-0.376 -0.951,-1.141 -1.948,-1.989 -3.047,-2.589 -0.876,-0.471 -1.647,-0.691 -2.427,-0.691 l -0.176,0.003 c -0.313,0 -0.443,-0.197 -0.514,-0.346 -0.069,-0.154 -0.144,-0.304 -0.222,-0.462 l -0.017,-0.037 -0.055,0.043 c -0.656,0.518 -1.29,1.017 -1.936,1.536 0.136,0.097 0.274,0.194 0.41,0.289 m 26.723,8.92 c -0.082,-0.38 -0.214,-0.742 -0.38,-1.148 -0.486,-1.193 -1.193,-2.099 -2.161,-2.77 -0.612,-0.416 -1.348,-0.684 -2.381,-0.869 -1.248,-0.224 -2.436,-0.334 -3.635,-0.334 -1.183,0.001 -2.572,0.07 -3.905,0.575 -0.196,0.072 -0.389,0.163 -0.577,0.251 l -0.075,0.035 0.223,0.473 c 0.223,0.474 0.443,0.941 0.672,1.419 0.066,-0.009 0.477,-0.068 0.477,-0.068 0.494,-0.066 1.011,-0.1 1.535,-0.1 0.849,0 1.749,0.086 2.753,0.261 2.241,0.387 4.551,1.086 7.269,2.199 z m 0.881,0.131 c 0.021,0.116 0.041,0.239 0.06,0.265 0.021,0.013 0.137,0.032 0.25,0.051 0.174,0.029 0.317,0.041 0.459,0.041 0.382,0 0.753,-0.082 1.066,-0.162 0.848,-0.207 1.694,-0.529 2.519,-0.957 -1.07,-1.373 -3.481,-2.8 -6.155,-2.992 0.893,1.007 1.485,2.239 1.801,3.754 m 6.377,0.148 c 0.184,-0.001 0.313,-0.056 0.453,-0.138 1.214,-0.726 2.838,-1.633 4.624,-2.201 0.441,-0.147 0.9,-0.255 1.346,-0.36 0.218,-0.051 0.435,-0.103 0.652,-0.159 0.033,-0.006 0.061,-0.013 0.088,-0.019 -0.107,-0.517 -0.335,-1.001 -0.725,-1.548 -0.626,-0.872 -1.521,-1.613 -2.735,-2.265 -0.335,-0.178 -0.684,-0.333 -1.028,-0.488 -0.162,-0.072 -0.324,-0.145 -0.485,-0.219 -0.082,-0.037 -0.163,-0.055 -0.262,-0.055 -0.045,0 -0.091,0.004 -0.139,0.01 -2.888,0.38 -5.685,1.163 -8.548,2.395 -0.262,0.112 -0.527,0.234 -0.804,0.368 1.909,0.307 3.517,0.971 4.902,2.025 0.741,0.555 1.278,1.122 1.688,1.784 l 0.091,0.146 -0.133,0.109 c -0.331,0.269 -0.703,0.444 -1.097,0.62 z m 2.966,-0.073 c 0.574,-0.015 1.145,-0.039 1.717,-0.062 0.952,-0.039 1.935,-0.08 2.902,-0.08 1.784,0.007 3.323,0.26 4.703,0.772 0.263,0.105 0.513,0.214 0.786,0.337 V 6.78 c 0.004,-0.274 0.008,-0.533 -0.015,-0.793 -0.094,-1.324 -0.36,-2.448 -0.811,-3.437 -0.317,-0.701 -0.715,-1.383 -1.063,-1.968 -0.402,-0.66 -1.046,-1.138 -2.089,-1.549 -0.986,-0.387 -2.091,-0.602 -3.378,-0.659 -0.216,-0.008 -0.434,-0.011 -0.652,-0.011 -0.304,0 -0.61,0.006 -0.914,0.012 -0.157,0.003 -0.314,0.006 -0.469,0.008 l 0.161,0.081 c 1.49,0.769 2.536,1.614 3.292,2.661 0.463,0.655 0.74,1.286 0.847,1.929 0.022,0.081 0.032,0.174 0.039,0.26 0.021,0.202 -0.041,0.46 -0.456,0.528 -0.484,0.078 -0.888,0.148 -1.304,0.254 -1.665,0.419 -3.176,1.163 -4.368,1.824 0.366,0 0.717,-0.002 1.072,-0.017 m 10.757,-1.247 c 0,0 0.734,0.077 0.951,0.098 1.546,0.144 3.091,0.283 4.638,0.421 2.278,0.202 4.544,0.399 6.792,0.59 1.127,0.099 2.255,0.193 3.383,0.288 1.46,0.122 2.919,0.244 4.371,0.375 0.498,0.047 0.994,0.09 1.491,0.133 1.629,0.142 3.316,0.289 4.961,0.563 3.461,0.561 6.747,1.468 9.764,2.695 2.532,1.022 4.732,2.179 6.704,3.527 -0.747,-1.084 -1.666,-2.095 -2.801,-3.085 -2.56,-2.236 -5.756,-4.03 -9.772,-5.484 -3.096,-1.125 -6.447,-1.963 -9.961,-2.492 -1.726,-0.271 -3.551,-0.503 -5.425,-0.689 -1.572,-0.156 -3.158,-0.229 -4.502,-0.28 -1.993,-0.079 -3.802,-0.119 -5.531,-0.119 -1.202,0.007 -2.433,0.055 -3.622,0.102 -0.528,0.021 -1.057,0.042 -1.586,0.06 -0.283,0.01 -0.572,0.026 -0.884,0.043 l -0.042,0.002 c 0.533,1.06 0.885,2.128 1.071,3.252 M -54.394,-9.252 c -1.445,0.116 -2.799,0.514 -4.257,1.002 0.031,0.01 0.061,0.02 0.092,0.029 0.43,0.133 0.873,0.27 1.3,0.436 1.46,0.577 2.736,1.453 3.792,2.606 0.083,0.097 0.134,0.157 0.177,0.211 0.15,0.2 0.139,0.413 -0.026,0.59 -0.379,0.339 -0.53,0.755 -0.514,1.406 0.005,0.139 0.016,0.277 0.026,0.422 0.005,0.067 0.011,0.135 0.016,0.206 l 0.263,-0.015 c 0.368,-0.021 0.708,-0.041 1.045,-0.052 0.365,-0.02 0.748,-0.036 1.126,-0.036 l 0.201,0.002 c 0.188,-0.001 0.353,-0.038 0.566,-0.129 l 0.405,-0.178 c 0.645,-0.285 1.311,-0.579 1.984,-0.827 0.43,-0.163 0.865,-0.285 1.325,-0.415 0.186,-0.052 0.373,-0.105 0.561,-0.161 -0.715,-1.568 -1.666,-2.781 -2.902,-3.703 -1.281,-0.946 -2.765,-1.427 -4.412,-1.427 -0.252,0 -0.508,0.012 -0.768,0.033 m -3.505,-7.364 c -0.208,-0.015 -0.414,-0.022 -0.621,-0.022 -1.176,0 -2.376,0.228 -3.89,0.741 -0.28,0.096 -0.552,0.199 -0.847,0.311 1.953,0.499 3.615,1.385 5.075,2.702 l 0.075,0.074 c 0.066,0.065 0.142,0.139 0.189,0.23 0.063,0.122 0.085,0.358 -0.033,0.489 -0.868,0.85 -1.156,1.91 -1.462,3.032 l -0.059,0.215 0.598,-0.179 c 0.63,-0.189 1.244,-0.373 1.86,-0.55 0.99,-0.271 1.894,-0.436 2.768,-0.507 0.055,-0.004 0.118,-0.029 0.135,-0.044 0.49,-0.588 1.093,-1.103 1.842,-1.569 -0.417,-1.398 -1.046,-2.463 -1.926,-3.311 -1.013,-0.969 -2.225,-1.496 -3.704,-1.612 m -5.934,-5.758 c -0.526,0 -1.068,0.041 -1.656,0.126 -0.852,0.124 -1.716,0.357 -2.759,0.748 1.901,0.337 3.547,1.033 4.9,2.071 0.188,0.142 0.365,0.304 0.538,0.464 l 0.085,0.078 c 0.039,0.036 0.073,0.078 0.113,0.132 0.021,0.028 0.047,0.062 0.078,0.1 l 0.113,0.135 -0.123,0.126 c -0.043,0.045 -0.086,0.092 -0.129,0.14 -0.073,0.08 -0.147,0.163 -0.228,0.239 -0.589,0.575 -0.964,1.183 -1.144,1.857 -0.004,0.009 -0.007,0.018 -0.01,0.028 0.314,-0.124 0.622,-0.245 0.94,-0.36 1.037,-0.37 2.416,-0.807 3.892,-0.916 0.232,-0.022 0.474,-0.029 0.716,-0.029 l 0.247,0.002 c 0.128,-0.001 0.239,-0.034 0.38,-0.114 0.322,-0.208 0.664,-0.408 1.025,-0.619 l 0.208,-0.122 c -0.312,-0.513 -0.715,-1.024 -1.203,-1.522 -1.114,-1.145 -2.363,-1.896 -3.818,-2.294 -0.685,-0.181 -1.394,-0.27 -2.165,-0.27 m -6.961,-4.344 c -1.887,0 -3.808,0.389 -5.71,1.159 -0.135,0.055 -0.171,0.115 -0.188,0.207 -0.045,0.191 -0.114,0.375 -0.183,0.553 -0.03,0.083 -0.067,0.167 -0.108,0.259 0.066,0.003 0.129,0.006 0.189,0.006 l 0.281,-0.002 c 1.59,0 3.138,0.154 4.601,0.456 0.418,0.084 0.82,0.201 1.194,0.314 0.133,0.041 0.388,0.174 0.407,0.386 0.035,0.193 -0.183,0.38 -0.304,0.449 -0.765,0.48 -1.177,1.171 -1.306,2.211 0.03,-0.014 0.059,-0.027 0.088,-0.04 1.629,-0.857 3.119,-1.475 4.584,-1.9 0.927,-0.27 1.781,-0.426 2.609,-0.477 0.153,-0.013 0.273,-0.055 0.411,-0.146 0.252,-0.165 0.513,-0.314 0.786,-0.469 l 0.111,-0.064 c -0.11,-0.139 -0.249,-0.266 -0.386,-0.391 -1.328,-1.264 -2.997,-2.054 -4.962,-2.352 -0.701,-0.106 -1.413,-0.159 -2.114,-0.159 m -7.27,-4.106 c -0.121,0.199 -0.12,0.356 -0.005,0.55 0.213,0.366 0.416,0.734 0.618,1.102 0.162,0.294 0.324,0.587 0.489,0.877 0.342,0.605 0.486,1.225 0.443,1.895 0.032,-0.012 0.063,-0.023 0.093,-0.035 0.132,-0.048 0.258,-0.095 0.384,-0.137 0.808,-0.289 1.641,-0.512 2.469,-0.663 0.132,-0.027 0.263,-0.078 0.393,-0.127 0.067,-0.024 0.909,-0.338 1.266,-0.473 0.368,-0.14 0.737,-0.279 1.108,-0.416 l 0.109,-0.037 c -2.491,-1.539 -4.845,-2.349 -7.367,-2.536 m 0.855,-1.239 c 0.669,-0.434 1.357,-0.765 1.95,-1.294 -0.745,0.428 -1.45,0.891 -1.95,1.294 m -1.482,0.585 c -0.542,-0.868 -1.086,-1.744 -1.662,-2.658 -0.135,0.12 -0.244,0.188 -0.331,0.281 -0.111,0.12 -0.148,0.261 -0.022,0.419 0.558,0.721 1.096,1.457 1.649,2.184 0.032,0.039 0.039,0.088 0.085,0.173 0.122,-0.174 0.191,-0.283 0.281,-0.399 m -14.543,-7.811 c 0.818,-0.567 1.587,-1.105 2.39,-1.655 -0.563,-0.904 -1.116,-1.784 -1.692,-2.694 -0.556,0.702 -1.186,1.291 -1.873,1.877 -0.047,-0.022 -0.081,-0.038 -0.116,-0.054 l -0.002,0.467 c 0.424,0.678 0.849,1.357 1.293,2.059 m 11.652,31.471 c 0.043,-0.781 -0.259,-2.615 -0.563,-3.508 -1.883,2.115 -3.972,4.044 -5.795,5.671 l 0.322,0.613 c 0.816,0.017 1.585,0.198 2.358,0.552 1.015,-1.508 2.22,-2.598 3.678,-3.328 m 5.132,3.422 c 0.138,-0.031 0.176,-0.078 0.208,-0.171 0.299,-0.97 0.385,-1.73 0.275,-2.457 -0.022,-0.13 -0.067,-0.19 -0.196,-0.265 -0.65,-0.356 -1.361,-0.537 -2.111,-0.537 -0.095,0 -0.191,0.003 -0.287,0.009 -1.568,0.091 -2.972,0.676 -4.293,1.787 -0.638,0.541 -1.202,1.184 -1.676,1.909 l -0.001,0.002 c 1.101,0.669 2.092,1.54 3.017,2.654 0.011,-0.01 0.021,-0.019 0.031,-0.029 1.458,-1.532 3.103,-2.48 5.033,-2.902 m 6.673,2.116 c -0.02,-0.131 -0.037,-0.262 -0.037,-0.396 -0.001,-0.064 -0.008,-0.093 -0.165,-0.166 -0.818,-0.374 -1.686,-0.648 -2.577,-0.814 -0.631,-0.111 -1.255,-0.168 -1.85,-0.168 -1.117,0 -2.188,0.199 -3.183,0.592 -1.028,0.399 -1.974,1.01 -2.888,1.864 1.369,0.203 2.477,0.898 3.458,2.159 0.045,-0.022 0.09,-0.044 0.136,-0.066 0.705,-0.367 1.536,-0.616 2.536,-0.759 0.746,-0.111 1.511,-0.164 2.336,-0.164 0.618,0 1.259,0.03 1.957,0.092 0.004,0 0.15,0.005 0.15,0.005 0.138,-0.599 0.192,-1.228 0.159,-1.871 -0.004,-0.106 -0.019,-0.207 -0.032,-0.308 m -5.608,-2.303 c 0.3,-0.023 0.599,-0.035 0.894,-0.035 1.485,0 2.929,0.285 4.403,0.87 0.051,-0.215 0.098,-0.413 0.131,-0.614 0.138,-0.846 0.238,-1.844 -0.056,-2.843 -0.157,-0.551 -0.157,-0.551 -0.742,-0.632 -0.456,-0.058 -0.899,-0.087 -1.316,-0.087 -0.698,0 -1.339,0.078 -1.96,0.237 -0.364,0.098 -0.778,0.222 -1.146,0.445 0.118,0.731 0.086,1.148 -0.208,2.659 m -1.05,-12.239 c -1.478,1.167 -2.853,2.405 -4.091,3.683 0.226,-0.042 0.45,-0.081 0.676,-0.106 0.224,-0.023 0.445,-0.034 0.664,-0.034 0.617,0 1.236,0.087 1.892,0.267 0.162,0.035 0.309,0.145 0.4,0.23 0.989,1.091 1.57,2.144 1.79,3.231 0.054,0.279 0.077,0.552 0.1,0.843 0.001,0.016 0.003,0.032 0.004,0.049 0.08,-0.073 0.16,-0.146 0.239,-0.221 2.841,-2.685 5.731,-4.771 8.834,-6.379 0.284,-0.144 0.571,-0.282 0.859,-0.41 0.097,-0.046 0.105,-0.071 0.114,-0.123 0.136,-1.016 0.602,-1.91 1.426,-2.726 l 0.01,-0.013 c -0.077,-0.075 -0.157,-0.15 -0.242,-0.217 -1.42,-1.098 -3.117,-1.784 -5.045,-2.04 -0.335,-0.046 -0.566,-0.077 -0.748,-0.077 -0.321,0 -0.52,0.098 -1.11,0.392 l -0.091,0.045 c -1.961,0.979 -3.819,2.158 -5.681,3.606 m -5.038,4.867 c 0.4,1.204 0.636,2.437 0.719,3.757 0.838,-0.293 1.614,-0.436 2.363,-0.436 0.877,0 1.702,0.194 2.509,0.594 l 0.002,-0.014 c 0.022,-0.144 0.043,-0.275 0.048,-0.41 0.042,-0.918 -0.24,-1.814 -0.861,-2.741 -0.185,-0.276 -0.407,-0.563 -0.697,-0.904 -0.06,-0.081 -0.154,-0.145 -0.242,-0.17 -0.573,-0.145 -1.104,-0.216 -1.619,-0.216 -0.611,0 -1.175,0.1 -1.727,0.305 -0.144,0.058 -0.283,0.128 -0.436,0.206 z m -2.416,-5.895 c 0.717,0.922 1.433,1.847 2.154,2.766 0.043,-0.491 -0.088,-0.922 -0.286,-1.344 -0.147,-0.33 -0.356,-0.623 -0.515,-0.945 -0.124,-0.216 -0.315,-0.35 -0.577,-0.398 -0.247,-0.047 -0.489,-0.086 -0.745,-0.144 -0.006,0.023 -0.011,0.044 -0.031,0.065 m 4.275,-3.416 c -1.309,1.102 -2.572,1.938 -3.854,2.563 -0.251,0.084 -0.459,0.218 -0.645,0.372 0.024,0.006 0.05,0.015 0.075,0.019 0.441,0.084 0.877,0.143 1.315,0.254 0.151,0.039 0.296,0.158 0.391,0.277 0.726,0.928 1.107,1.989 1.132,3.129 0.007,0.19 0.043,0.352 0.195,0.505 0.042,0.044 0.073,0.101 0.104,0.161 0.339,-0.164 0.612,-0.405 0.804,-0.702 0.88,-0.833 1.914,-1.769 3.034,-2.643 1.407,-1.103 2.805,-2.053 4.27,-2.901 0.046,-0.988 0.246,-2.085 1.207,-2.966 -1.084,-0.275 -2.261,-0.446 -3.601,-0.522 -0.36,-0.016 -0.721,-0.021 -1.083,-0.025 -0.314,-0.005 -0.627,-0.008 -0.94,-0.02 h -0.009 c -0.179,0 -0.254,0.043 -0.337,0.167 -0.557,0.871 -1.251,1.657 -2.058,2.332 m -7.204,-0.653 c 0.064,0.097 0.118,0.183 0.171,0.259 0.458,0.564 0.913,1.133 1.372,1.7 0.23,0.293 0.257,0.299 0.632,0.199 0.12,-0.028 0.249,-0.077 0.396,-0.136 -0.523,-0.832 -1.031,-1.629 -1.524,-2.411 0.793,-0.515 1.561,-1.022 2.353,-1.538 0.549,0.871 1.078,1.723 1.631,2.609 0.847,-0.528 1.593,-1.12 2.288,-1.798 -0.598,-0.959 -1.191,-1.915 -1.815,-2.911 -0.57,0.855 -1.329,1.453 -2.104,2.082 -0.653,-1.035 -1.272,-2.032 -1.928,-3.07 -0.387,0.268 -0.764,0.528 -1.153,0.769 -0.393,0.248 -0.815,0.46 -1.252,0.702 0.64,1.02 1.277,2.041 1.906,3.069 -0.323,0.156 -0.633,0.304 -0.973,0.475 m 22.639,19.131 c -0.813,-0.096 -1.662,-0.146 -2.524,-0.146 -0.734,0 -1.503,0.036 -2.288,0.106 0.067,0.833 0.097,1.796 -0.084,2.813 l 0.334,0.06 c 1.107,0.193 2.25,0.392 3.21,1.03 0.995,-0.739 1.77,-2.29 1.352,-3.863 m 0.248,3.276 c 1.655,-0.709 3.011,-1.212 4.338,-1.608 1.684,-0.512 3.317,-0.873 4.984,-1.1 -0.116,-0.838 -0.108,-1.705 0.471,-2.485 -0.459,-0.509 -0.964,-0.946 -1.539,-1.332 -1.28,-0.894 -2.712,-1.452 -4.257,-1.659 -0.032,-0.004 -0.066,-0.006 -0.101,-0.006 -0.107,0 -0.216,0.019 -0.306,0.053 -2.574,0.995 -5.092,2.325 -7.489,3.953 0.357,-0.024 0.711,-0.034 1.063,-0.034 0.78,0 1.601,0.048 2.664,0.157 0.032,0.002 0.066,0.009 0.1,0.015 0.024,0.004 0.048,0.01 0.072,0.01 0.39,0.025 0.501,0.277 0.552,0.465 0.309,1.266 0.123,2.465 -0.552,3.571 m -5.173,-5.086 c -0.041,0.275 -0.091,0.549 -0.146,0.854 l -0.014,0.075 c 0.035,-0.019 0.066,-0.037 0.097,-0.055 2.611,-1.891 5.494,-3.462 8.554,-4.66 0.174,-0.077 0.227,-0.133 0.265,-0.282 0.225,-1.021 0.515,-2.107 1.101,-3.088 0.105,-0.161 0.214,-0.311 0.324,-0.464 l 0.111,-0.156 c -0.639,-0.574 -1.363,-1.076 -2.156,-1.494 -1.035,-0.551 -2.117,-0.924 -3.309,-1.14 -0.048,-0.007 -0.102,-0.011 -0.155,-0.011 -0.131,0 -0.247,0.026 -0.375,0.085 -1.891,0.895 -3.76,2.04 -5.713,3.501 -1.215,0.916 -2.386,1.9 -3.487,2.93 0.055,-0.013 0.108,-0.024 0.16,-0.035 0.569,-0.112 1.163,-0.17 1.769,-0.17 0.645,0 1.324,0.065 2.016,0.194 0.288,0.043 0.492,0.203 0.585,0.459 l 0.039,0.096 c 0.101,0.252 0.206,0.512 0.272,0.785 0.197,0.767 0.217,1.587 0.062,2.576 m -24.504,-6.853 -1.065,-1.503 -0.012,2.188 c 0.358,-0.227 0.714,-0.454 1.077,-0.685 0.639,0.993 1.269,1.997 1.933,3.036 1.247,-0.861 2.317,-1.866 3.529,-2.76 0.591,0.934 1.173,1.848 1.779,2.81 0.888,-0.832 1.598,-1.749 2.35,-2.651 -0.54,-0.876 -1.07,-1.719 -1.612,-2.581 -0.837,0.798 -1.668,1.572 -2.517,2.385 -0.646,-1.03 -1.276,-2.035 -1.902,-3.052 0.813,-0.822 1.609,-1.647 2.436,-2.482 0.65,1.038 1.287,2.044 1.944,3.088 0.234,-0.326 0.46,-0.615 0.676,-0.925 0.275,-0.406 0.601,-0.794 0.765,-1.264 0.098,-0.255 0.085,-0.46 -0.066,-0.698 -0.572,-0.913 -1.132,-1.836 -1.697,-2.762 -0.033,-0.049 -0.072,-0.098 -0.149,-0.195 -0.23,1.043 -0.672,1.934 -1.548,2.64 -0.626,-1.008 -1.226,-1.989 -1.839,-2.966 -0.831,0.798 -1.663,1.574 -2.513,2.384 -0.067,-0.097 -0.123,-0.174 -0.176,-0.244 -0.594,-0.874 -1.183,-1.741 -1.772,-2.608 -0.064,-0.092 -0.099,-0.189 -0.149,-0.287 0.043,-0.071 0.063,-0.154 0.122,-0.203 0.814,-0.743 1.624,-1.476 2.465,-2.237 0.662,1.041 1.298,2.062 1.982,3.14 0.547,-0.787 1.17,-1.459 1.495,-2.324 -0.512,-0.782 -1.032,-1.573 -1.558,-2.398 0.619,-0.282 1.213,-0.551 1.862,-0.843 -0.276,-0.449 -0.535,-0.855 -0.782,-1.267 -0.364,-0.593 -0.734,-1.192 -1.083,-1.785 0.008,-0.035 0.014,-0.056 0.022,-0.091 0.64,-0.409 1.288,-0.812 1.932,-1.215 0.11,-0.062 0.221,-0.127 0.375,-0.219 0.647,1.02 1.289,2.025 1.919,3.015 0.709,-0.678 1.411,-1.343 2.138,-2.033 0.639,1.026 1.27,2.021 1.912,3.054 0.083,-0.071 0.181,-0.12 0.227,-0.197 0.128,-0.225 0.249,-0.455 0.354,-0.689 0.133,-0.267 0.244,-0.524 0.382,-0.847 0.456,0.696 0.869,1.34 1.269,1.967 0.185,0.29 0.361,0.577 0.535,0.864 0.078,0.132 0.116,0.285 0.199,0.462 0.488,-0.855 0.747,-1.738 0.62,-2.671 -0.055,-0.127 -0.109,-0.253 -0.165,-0.38 -0.035,0.443 -0.07,0.877 -0.1,1.321 -0.027,0 -0.067,0.015 -0.081,0.022 -0.605,-0.966 -1.215,-1.931 -1.853,-2.95 -0.126,0.435 -0.231,0.791 -0.359,1.23 -0.67,-1.002 -1.292,-1.952 -1.913,-2.877 -0.336,0.538 -0.673,1.067 -1.041,1.648 -0.659,-1.032 -1.29,-2.019 -1.931,-3.034 -0.578,0.809 -1.319,1.429 -2.113,2.068 -0.635,-1.009 -1.252,-1.995 -1.865,-2.976 -0.818,0.504 -1.614,0.986 -2.439,1.481 0.657,1.004 1.315,2.027 1.976,3.047 -0.081,0.001 -0.179,-0.02 -0.245,0.018 -0.31,0.132 -0.606,0.296 -0.911,0.445 -0.201,0.099 -0.391,0.189 -0.631,0.3 0.204,0.321 0.396,0.63 0.593,0.941 0.177,0.287 0.336,0.581 0.538,0.853 0.163,0.21 0.191,0.431 0.141,0.654 -0.226,0.841 -0.685,1.566 -1.426,2.205 -0.629,-1.018 -1.24,-1.995 -1.873,-2.997 -0.376,0.403 -0.762,0.786 -1.164,1.154 l -0.05,9.682 2.622,-2.199 1.991,3.18 z m -0.956,-22.685 -0.007,1.376 c 0.169,0.274 0.34,0.546 0.501,0.826 0.047,0.083 0.074,0.209 0.052,0.301 -0.118,0.47 -0.307,0.903 -0.566,1.305 l -0.012,2.415 c 0.378,0.601 0.753,1.199 1.145,1.81 0.483,-0.78 1.151,-1.399 1.493,-2.244 -0.491,-0.77 -1.004,-1.551 -1.53,-2.37 0.616,-0.291 1.229,-0.567 1.86,-0.852 -0.662,-1.099 -1.311,-2.148 -1.937,-3.174 0.706,-0.46 1.42,-0.914 2.13,-1.381 -0.63,-1.011 -1.234,-1.979 -1.842,-2.95 -0.427,0.262 -0.846,0.518 -1.266,0.775 l -0.013,2.51 c 0.225,0.363 0.448,0.725 0.678,1.097 -0.222,0.184 -0.456,0.371 -0.686,0.556 m 6.355,-6.064 c -0.448,-0.684 -0.903,-1.356 -1.354,-2.031 -0.014,-0.012 -0.049,-0.012 -0.041,-0.012 -0.309,0.522 -0.625,1.036 -0.944,1.564 0.476,0.752 0.943,1.509 1.438,2.291 0.342,-0.28 0.438,-0.618 0.581,-0.925 0.096,-0.211 0.211,-0.417 0.308,-0.629 0.034,-0.083 0.05,-0.203 0.012,-0.258 m -0.884,1.855 c -0.572,0.816 -1.338,1.426 -2.111,2.088 0.653,1.015 1.289,2.028 1.939,3.055 0.257,-0.268 0.454,-0.514 0.693,-0.745 0.168,-0.163 0.372,-0.296 0.548,-0.459 0.294,-0.259 0.579,-0.53 0.889,-0.82 0.637,1.03 1.271,2.029 1.928,3.073 0.545,-0.484 0.547,-1.198 1.001,-1.746 0.64,1.011 1.253,2.001 1.906,3.055 0.157,-0.479 0.281,-0.863 0.426,-1.335 0.642,0.977 1.252,1.893 1.861,2.803 0.026,0 0.049,0 0.077,0 0.031,-0.426 0.068,-0.84 0.104,-1.263 0.021,-0.016 0.038,-0.021 0.067,-0.037 0.283,0.452 0.566,0.883 0.832,1.322 0.03,-0.006 0.054,-0.018 0.063,-0.027 -0.041,-0.104 -0.094,-0.208 -0.148,-0.306 -0.537,-0.969 -1.08,-1.931 -1.624,-2.885 -0.06,-0.091 -0.061,-0.33 -0.316,-0.209 -0.011,0 -0.098,-0.113 -0.139,-0.168 -0.198,-0.315 -0.384,-0.63 -0.618,-0.993 -0.19,0.549 -0.047,1.082 -0.212,1.652 -0.644,-1.007 -1.248,-1.957 -1.914,-2.981 -0.114,0.43 -0.223,0.79 -0.35,1.225 -0.673,-1.002 -1.302,-1.951 -1.973,-2.95 -0.193,0.65 -0.667,1.11 -0.981,1.716 -0.662,-1.036 -1.284,-2.023 -1.948,-3.065 m 3.35,-4.233 c -0.645,-1.011 -1.288,-2.016 -1.953,-3.055 -0.272,0.183 -0.454,0.367 -0.505,0.634 -0.082,0.448 -0.126,0.877 0.18,1.317 0.521,0.743 0.98,1.524 1.47,2.294 0.071,0.119 0.151,0.226 0.254,0.342 -0.14,-0.615 0.128,-1.095 0.554,-1.532 m 3.441,1.009 c -0.53,-0.834 -1.038,-1.637 -1.583,-2.484 -0.61,0.509 -1.174,0.975 -1.769,1.459 0.444,0.725 0.895,1.436 1.384,2.211 0.052,-0.189 0.076,-0.315 0.111,-0.441 0.045,-0.148 0.129,-0.239 0.31,-0.289 0.502,-0.129 1.008,-0.293 1.547,-0.456 m 7.505,2.873 c -0.651,-1.045 -1.294,-2.076 -1.949,-3.134 -0.728,0.427 -1.424,0.828 -2.151,1.252 0.644,1.032 1.276,2.043 1.928,3.076 -0.645,0.42 -1.269,0.831 -1.938,1.266 -0.629,-1.02 -1.276,-2.034 -1.919,-3.076 -0.749,0.476 -1.149,1.149 -1.638,1.832 -0.596,-0.957 -1.18,-1.888 -1.766,-2.832 -0.333,0.183 -0.487,0.416 -0.513,0.722 -0.016,0.209 -0.03,0.412 -0.119,0.629 -0.244,-0.385 -0.489,-0.772 -0.731,-1.154 -0.025,0 -0.043,0.007 -0.065,0.012 -0.035,0.534 -0.076,1.082 -0.122,1.623 -0.027,0.008 -0.052,0.014 -0.086,0.021 -0.461,-0.718 -0.919,-1.426 -1.412,-2.202 -0.285,0.219 -0.54,0.41 -0.8,0.607 0.63,0.999 1.242,1.986 1.895,3.031 0.145,-0.466 0.273,-0.854 0.42,-1.338 0.655,0.986 1.258,1.896 1.862,2.803 0.027,0 0.051,-0.006 0.081,-0.015 0.028,-0.426 0.064,-0.856 0.097,-1.281 0.011,-0.007 0.038,-0.016 0.056,-0.023 0.323,0.488 0.645,0.987 0.969,1.476 -0.291,-0.925 -0.196,-1.367 0.413,-1.771 0.625,0.971 1.242,1.943 1.902,2.972 0.029,-0.141 0.054,-0.202 0.074,-0.279 0.076,-0.365 0.267,-0.684 0.551,-0.953 0.273,-0.247 0.558,-0.471 0.875,-0.74 0.613,0.966 1.232,1.916 1.851,2.902 0.637,-0.454 1.247,-0.883 1.878,-1.334 -0.592,-0.94 -1.179,-1.881 -1.798,-2.876 0.75,-0.418 1.434,-0.808 2.155,-1.216 M -5.886,4.606 C -8.683,2.2 -11.97,0.472 -15.657,-0.531 c -2.263,-0.603 -4.596,-1.056 -6.933,-1.348 -1.887,-0.238 -3.427,-0.408 -4.846,-0.535 -1.276,-0.119 -2.578,-0.193 -3.837,-0.264 l -0.565,-0.032 c -2.489,-0.145 -5.052,-0.219 -7.617,-0.219 -0.466,0 -0.934,0.003 -1.4,0.007 -1.201,0.01 -2.404,0.026 -3.611,0.042 l -2.167,0.027 c -0.164,0.006 -0.85,0.037 -1.026,0.042 -0.307,0.014 -0.586,0.075 -0.851,0.186 l -0.184,0.082 c -0.165,0.073 -0.334,0.148 -0.503,0.228 0.992,0.136 1.858,0.359 2.644,0.68 1.108,0.464 1.915,1.135 2.471,2.053 l 0.102,0.159 0.449,-0.001 c 0.347,0 0.684,-0.001 1.02,-0.007 0.61,-0.017 1.218,-0.038 1.827,-0.059 0.729,-0.025 1.458,-0.05 2.191,-0.068 0.667,-0.012 1.329,-0.023 1.989,-0.023 0.306,0 0.612,0.003 0.918,0.008 1.039,0.022 2.066,0.054 3.096,0.087 l 1.052,0.033 c 1.963,0.068 4.002,0.228 6.233,0.487 5.842,0.676 10.775,1.853 15.083,3.596 2.886,1.17 5.313,2.531 7.421,4.163 0.682,0.525 1.294,1.052 1.852,1.597 C -2.283,8.183 -3.976,6.239 -5.886,4.606 m -90.2,-52.446 c 0.086,0.069 0.166,0.132 0.246,0.196 0.12,-0.109 0.239,-0.219 0.36,-0.327 0.039,-0.037 0.077,-0.092 0.097,-0.163 -0.239,0.091 -0.471,0.194 -0.703,0.294 m -13.619,-8.084 c -7.555,-5.005 -15.057,-7.245 -16.848,-7.739 -1.791,0.494 -9.293,2.734 -16.847,7.739 -3.94,2.601 -11.239,8.406 -13.454,10.171 l 0.205,40.015 c 3.101,0.457 10.318,1.585 15.838,2.957 5.581,1.377 11.572,5.317 14.258,7.219 2.687,-1.902 8.678,-5.842 14.258,-7.219 5.521,-1.372 12.737,-2.5 15.838,-2.957 l 0.205,-40.015 c -2.214,-1.765 -9.513,-7.57 -13.453,-10.171 m 12.703,5.602 c -0.437,0.129 -0.888,0.273 -1.357,0.437 l 0.603,0.475 c 0.24,-0.328 0.489,-0.63 0.754,-0.912 m -1.533,-0.864 -0.266,-0.002 c -0.368,0 -0.748,0.014 -1.17,0.045 0.285,0.221 0.565,0.439 0.838,0.653 0.607,-0.233 1.184,-0.437 1.747,-0.616 -0.352,-0.046 -0.729,-0.072 -1.149,-0.08 m -55.77,-0.002 -0.266,0.002 c -0.419,0.008 -0.797,0.034 -1.149,0.08 0.564,0.179 1.141,0.383 1.748,0.616 0.273,-0.214 0.553,-0.432 0.837,-0.653 -0.422,-0.031 -0.802,-0.045 -1.17,-0.045 m -1.045,1.778 0.603,-0.475 c -0.469,-0.164 -0.919,-0.308 -1.357,-0.437 0.265,0.282 0.514,0.584 0.754,0.912 m -2.373,1.276 c 0.021,0.071 0.059,0.126 0.098,0.163 0.12,0.108 0.239,0.218 0.359,0.327 0.08,-0.064 0.161,-0.127 0.246,-0.196 -0.232,-0.1 -0.463,-0.203 -0.703,-0.294 m 5.564,48.576 c 0.622,-0.997 1.426,-2.336 2.055,-3.362 -1.66,-0.293 -3.215,-0.548 -4.52,-0.754 -0.524,0.833 -1.048,1.67 -1.587,2.529 1.327,0.61 2.654,1.151 4.052,1.587 m 4.681,1.16 c 0.099,-0.102 1.081,-1.623 2.327,-3.58 -0.176,-0.036 -0.353,-0.072 -0.53,-0.108 -0.624,0.952 -1.248,1.902 -1.871,2.855 -0.276,0.418 -0.276,0.418 0.074,0.833 m 41.85,0 c 0.351,-0.415 0.351,-0.415 0.074,-0.833 -0.623,-0.953 -1.247,-1.903 -1.871,-2.855 -0.177,0.036 -0.353,0.072 -0.53,0.108 1.247,1.957 2.228,3.478 2.327,3.58 m 4.682,-1.16 c 1.397,-0.436 2.724,-0.977 4.051,-1.587 -0.539,-0.859 -1.062,-1.696 -1.586,-2.529 -1.306,0.206 -2.86,0.461 -4.52,0.754 0.629,1.026 1.433,2.365 2.055,3.362 m -58.712,-48.865 c -0.313,0.468 -0.628,0.935 -0.937,1.397 -0.324,0.461 -0.607,0.946 -1,1.419 -0.11,-0.414 -0.206,-0.764 -0.302,-1.117 -0.022,-0.009 -0.041,-0.015 -0.077,-0.016 -0.611,0.969 -1.216,1.93 -1.827,2.899 -0.029,-0.01 -0.046,-0.015 -0.073,-0.021 -0.019,-0.24 -0.048,-0.482 -0.077,-0.721 -0.027,0 -0.048,-0.001 -0.076,-0.007 -0.609,0.807 -1.229,1.609 -1.839,2.417 -0.038,0.065 -0.092,0.156 -0.085,0.225 0.023,0.377 0.063,0.741 0.1,1.112 0.017,0 0.039,0.006 0.052,0.013 0.621,-0.929 1.248,-1.854 1.904,-2.837 0.15,0.47 0.285,0.871 0.43,1.332 0.664,-1.055 1.305,-2.062 1.949,-3.083 0.406,0.542 0.403,1.243 0.975,1.703 0.662,-1.035 1.287,-2.034 1.952,-3.069 0.033,0.04 0.069,0.072 0.103,0.109 0.042,-0.033 0.095,-0.076 0.158,-0.126 -0.441,-0.538 -0.88,-1.075 -1.33,-1.629 m 0.63,-4.902 c 0.204,-0.302 0.204,-0.302 0.129,-0.56 -0.027,-0.098 -0.048,-0.19 -0.091,-0.282 -0.105,-0.302 -0.219,-0.611 -0.427,-0.885 -0.042,0.049 -0.094,0.076 -0.091,0.097 0.158,0.534 0.302,1.068 0.48,1.63 m -1.318,-2.575 c -0.244,-0.331 -0.47,-0.682 -0.762,-1.033 -0.644,1.027 -1.248,1.992 -1.86,2.969 -0.651,-0.417 -1.274,-0.825 -1.944,-1.264 0.636,-1.017 1.245,-1.994 1.867,-2.996 -0.604,-0.38 -1.182,-0.741 -1.787,-1.121 -0.741,0.983 -1.48,1.95 -2.224,2.949 0.726,0.408 1.409,0.794 2.13,1.197 -0.669,1.062 -1.31,2.07 -1.952,3.096 -0.781,-0.445 -1.514,-0.862 -2.309,-1.307 -0.69,1.019 -1.354,2.018 -2.037,3.048 0.806,0.457 1.587,0.896 2.386,1.35 0.665,-1.029 1.301,-2.034 1.952,-3.042 0.8,0.255 1.309,0.835 1.951,1.227 0.665,-1.038 1.299,-2.044 1.959,-3.078 0.181,0.166 0.316,0.335 0.483,0.461 0.516,0.38 0.849,0.856 0.986,1.452 0.006,0.015 0.033,0.021 0.09,0.043 0.604,-0.978 1.209,-1.943 1.824,-2.93 -0.261,-0.351 -0.505,-0.688 -0.753,-1.021 m -0.746,-1.484 c -0.468,-0.422 -0.942,-0.846 -1.414,-1.269 -0.041,-0.037 -0.104,-0.049 -0.173,-0.087 -0.11,0.169 -0.197,0.321 -0.267,0.428 0.639,0.432 1.247,0.849 1.867,1.25 0.197,-0.118 0.084,-0.229 -0.013,-0.322 m -0.845,10.295 c 0.014,0.013 0.042,0.019 0.069,0.027 0.322,-0.482 0.652,-0.963 0.984,-1.453 -0.025,-0.021 -0.063,-0.04 -0.091,-0.061 -0.306,0.412 -0.636,0.815 -0.932,1.226 -0.05,0.072 -0.027,0.175 -0.03,0.261 m -11.252,-0.177 c -0.612,1.079 -1.207,2.112 -1.812,3.178 0.764,0.44 1.476,0.863 2.238,1.302 -0.477,0.761 -0.941,1.475 -1.367,2.159 0.642,0.445 1.24,0.856 1.866,1.294 0.467,-0.755 0.932,-1.488 1.423,-2.264 -0.642,-0.42 -1.257,-0.831 -1.876,-1.238 0.636,-1.008 1.28,-2.031 1.927,-3.042 0.774,0.265 1.288,0.813 1.951,1.235 0.652,-1.026 1.295,-2.049 1.886,-2.993 0.279,0.213 0.52,0.416 0.793,0.596 0.384,0.252 0.558,0.605 0.679,0.999 0.026,0.092 0.065,0.184 0.127,0.31 0.648,-1.03 1.266,-2.007 1.927,-3.054 0.189,0.301 0.398,0.513 0.473,0.759 0.086,0.236 0.044,0.508 0.064,0.791 0.044,-0.043 0.077,-0.065 0.098,-0.098 0.584,-0.917 1.171,-1.839 1.747,-2.776 0.206,-0.315 0.126,-1.159 -0.121,-1.46 -0.078,-0.092 -0.182,-0.169 -0.317,-0.284 -0.62,0.959 -1.211,1.882 -1.809,2.82 -0.525,-0.65 -0.934,-1.317 -1.656,-1.795 -0.661,1.032 -1.296,2.04 -1.92,3.039 -0.735,-0.347 -1.252,-0.901 -1.984,-1.217 -0.657,1.044 -1.294,2.049 -1.93,3.079 -0.816,-0.452 -1.61,-0.894 -2.407,-1.34 m -2.747,0.242 c -2.116,0 -4.802,0.302 -6.158,0.658 1.892,0.303 3.863,0.773 6.125,1.457 l 0.037,-0.063 c 0.405,-0.682 0.791,-1.333 1.159,-2.013 -0.335,-0.027 -0.725,-0.039 -1.163,-0.039 m -3.919,2.16 c 0.511,0.362 0.997,0.768 1.447,1.212 0.281,0.294 0.529,0.608 0.792,0.942 0.071,0.09 0.142,0.181 0.215,0.272 0.182,-0.31 1.031,-1.749 1.031,-1.749 -0.739,-0.276 -2.705,-0.785 -4.125,-1.083 0.221,0.13 0.434,0.262 0.64,0.406 m 0.661,2.437 c -0.803,-0.247 -1.605,-0.494 -2.414,-0.715 -2.103,-0.556 -4.279,-0.839 -6.466,-0.839 -0.46,0 -0.921,0.012 -1.384,0.037 -2.053,0.106 -4.108,0.463 -6.106,1.06 -1.161,0.354 -2.259,0.82 -3.553,1.411 -0.704,0.315 -1.288,0.71 -1.798,1.221 0.314,-0.103 0.614,-0.201 0.92,-0.286 2.225,-0.617 4.506,-0.917 6.975,-0.917 0.409,0 0.819,0.009 1.23,0.025 2.016,0.079 4.091,0.35 6.17,0.805 1.787,0.393 3.69,0.948 5.819,1.7 0.072,0.027 0.151,0.049 0.239,0.074 l 0.029,0.008 0.263,-0.443 c 0.528,-0.894 1.051,-1.777 1.573,-2.668 -0.062,-0.027 -0.119,-0.051 -0.171,-0.07 -0.443,-0.131 -0.884,-0.267 -1.326,-0.403 m -0.746,4.288 -0.119,-0.048 c -1.842,-0.664 -3.574,-1.181 -5.296,-1.583 -2.621,-0.608 -5.075,-0.904 -7.502,-0.904 h -0.094 c -0.714,0.011 -1.469,0.045 -2.247,0.102 -1.828,0.129 -3.574,0.461 -5.193,0.987 0.16,0.006 0.32,0.011 0.48,0.017 0.678,0.023 1.359,0.046 2.037,0.093 2.255,0.151 4.636,0.53 7.08,1.126 3.289,0.816 6.399,2.024 8.74,2.987 0.095,0.038 0.337,0.132 0.337,0.132 z m -25.554,0.059 c -2.808,0.464 -5.568,1.273 -8.224,2.411 1.596,-0.307 3.32,-0.482 5.231,-0.535 0.425,-0.011 0.852,-0.015 1.28,-0.015 0.982,0 2.041,0.026 3.148,0.077 1.436,0.074 2.957,0.192 4.65,0.362 2.379,0.252 4.694,0.647 6.443,0.964 4.931,0.864 9.613,2.151 13.917,3.825 0.095,0.037 0.181,0.055 0.272,0.055 0.066,0 0.135,-0.009 0.21,-0.026 0.68,-0.184 1.367,-0.354 2.078,-0.527 -1.599,-1.054 -2.903,-1.8 -4.203,-2.406 -2.041,-0.964 -4.16,-1.748 -6.145,-2.451 -4.198,-1.479 -8.432,-2.23 -12.583,-2.23 -0.372,0 -0.745,0.007 -1.119,0.018 -1.657,0.046 -3.324,0.207 -4.955,0.478 m -10.398,3.767 c 0.302,0.022 0.602,0.047 0.897,0.085 1.376,0.177 2.766,0.564 4.371,1.215 0.165,0.061 0.293,0.088 0.417,0.088 0.035,0 0.069,-0.002 0.106,-0.007 1.88,-0.233 3.773,-0.239 5.604,-0.245 l 0.905,-0.004 c 1.492,0 3.082,0.107 4.862,0.325 2.574,0.314 5.193,0.817 8.007,1.538 2.434,0.62 4.974,1.404 7.567,2.339 0.085,0.027 0.152,0.049 0.211,0.049 0.033,0 0.081,-0.007 0.153,-0.053 0.834,-0.553 1.761,-1.038 2.859,-1.496 -3.711,-1.42 -7.741,-2.55 -11.984,-3.36 -3.401,-0.651 -6.252,-1.066 -8.974,-1.305 -1.534,-0.138 -3.05,-0.234 -4.508,-0.283 -0.474,-0.017 -0.95,-0.025 -1.426,-0.025 -1.076,0 -2.196,0.043 -3.327,0.127 -1.976,0.151 -3.688,0.432 -5.236,0.858 -0.169,0.048 -0.337,0.099 -0.504,0.154 m -3.081,3.709 c -2.673,0.636 -5.033,1.385 -7.195,2.284 0.962,-0.135 1.924,-0.266 2.896,-0.376 2.44,-0.289 4.976,-0.448 7.753,-0.486 0.598,-0.011 1.196,-0.016 1.793,-0.016 2.397,0 4.615,0.086 6.781,0.262 2.434,0.196 4.699,0.466 6.922,0.824 3.768,0.613 7.364,1.465 10.681,2.529 0.075,0.022 0.138,0.033 0.192,0.033 0.091,0 0.171,-0.031 0.284,-0.11 0.568,-0.41 1.233,-0.763 2.033,-1.078 1.307,-0.499 2.687,-0.751 4.212,-0.77 -0.035,-0.011 -0.069,-0.021 -0.104,-0.032 -0.184,-0.058 -0.37,-0.116 -0.556,-0.18 -0.196,-0.068 -0.381,-0.132 -0.435,-0.302 -0.033,-0.104 -0.002,-0.204 0.05,-0.3 -0.151,-0.053 -0.302,-0.107 -0.45,-0.161 -5.611,-1.906 -11.313,-3.144 -16.947,-3.68 -1.151,-0.104 -2.185,-0.166 -3.162,-0.19 -0.286,-0.009 -0.571,-0.013 -0.856,-0.013 -1.818,0 -3.607,0.166 -5.433,0.351 -2.925,0.296 -5.772,0.77 -8.459,1.411 m -2.727,3.678 0.669,0.083 c 1.043,0.127 2.121,0.258 3.161,0.516 0.054,0.014 0.119,0.021 0.199,0.021 l 0.095,-0.003 c 0.318,-0.007 0.635,-0.019 0.953,-0.03 0.489,-0.019 0.979,-0.037 1.471,-0.037 h 0.094 c 1.273,0.007 2.543,0.05 3.508,0.088 l 0.606,0.027 c 1.234,0.055 2.51,0.113 3.761,0.22 2.066,0.193 4.137,0.416 6.329,0.682 3.449,0.431 6.833,1.078 10.067,1.926 -0.028,-0.036 -0.048,-0.075 -0.059,-0.121 -0.045,-0.184 0.078,-0.343 0.271,-0.565 0.208,-0.239 0.431,-0.475 0.663,-0.719 l 0.073,-0.079 c -7.05,-2.202 -14.368,-3.346 -22.36,-3.494 -0.595,-0.011 -1.19,-0.017 -1.784,-0.017 -4.268,0 -8.471,0.316 -12.512,0.939 1.599,0.186 3.192,0.372 4.795,0.563 m -0.487,1.841 c -3.433,0.465 -6.541,1.237 -9.5,2.357 -2.576,0.978 -4.809,2.135 -6.797,3.524 3.033,-1.21 6.454,-2.117 10.447,-2.771 3.433,-0.568 6.977,-0.875 10.836,-0.937 0.545,-0.007 1.09,-0.011 1.635,-0.011 1.854,0 3.522,0.045 5.101,0.137 1.831,0.109 3.647,0.276 5.4,0.497 3.119,0.394 6.18,0.962 9.1,1.687 0.064,0.017 0.118,0.024 0.166,0.024 0.091,0 0.178,-0.025 0.312,-0.147 1.068,-1.017 2.334,-1.732 3.77,-2.131 -2.884,-0.729 -5.924,-1.301 -9.281,-1.745 -2.459,-0.335 -4.717,-0.563 -6.903,-0.699 l -0.999,-0.064 c -1.247,-0.081 -2.537,-0.166 -3.794,-0.199 -0.38,-0.01 -0.759,-0.014 -1.138,-0.014 -0.821,0 -1.642,0.018 -2.464,0.036 l -0.904,0.02 c -1.508,0.036 -3.139,0.179 -4.987,0.436 m -11.697,6.768 c 0.451,-0.007 0.902,-0.012 1.352,-0.012 1.892,0 3.335,0.088 4.684,0.283 0.062,0.01 0.128,0.016 0.194,0.016 0.094,0 0.186,-0.011 0.27,-0.032 3.419,-0.793 7.115,-1.245 11.299,-1.378 0.657,-0.021 1.313,-0.031 1.968,-0.031 1.447,0 2.946,0.05 4.456,0.146 1.357,0.08 2.694,0.208 4.284,0.377 2.744,0.285 5.433,0.716 8.011,1.282 -0.041,-0.027 -0.076,-0.062 -0.102,-0.106 -0.084,-0.142 -0.034,-0.3 0.021,-0.43 l 0.029,-0.061 c 0.036,-0.078 0.072,-0.154 0.124,-0.235 0.211,-0.292 0.985,-1.378 0.985,-1.378 -0.045,-0.012 -0.089,-0.022 -0.133,-0.033 -3.183,-0.771 -6.38,-1.343 -9.501,-1.701 -1.367,-0.159 -2.768,-0.265 -4.147,-0.37 -0.609,-0.04 -1.22,-0.06 -1.83,-0.081 -0.462,-0.016 -0.924,-0.031 -1.382,-0.055 -0.733,-0.032 -1.506,-0.049 -2.296,-0.049 -1.206,0 -2.52,0.038 -4.018,0.116 -1.733,0.08 -3.469,0.244 -4.938,0.393 -3.272,0.33 -6.542,0.956 -9.721,1.86 -1.81,0.508 -3.422,1.084 -4.914,1.756 1.737,-0.155 3.518,-0.249 5.305,-0.277 m 4.054,1.667 c -3.845,1.031 -7.943,2.206 -11.859,3.811 -2.349,0.956 -4.077,1.832 -5.602,2.836 -0.034,0.023 -0.068,0.046 -0.103,0.07 4.068,-1.628 8.658,-2.831 13.989,-3.67 2.769,-0.44 5.321,-0.719 7.802,-0.851 1.757,-0.094 3.573,-0.191 5.367,-0.209 0.373,-0.005 0.746,-0.008 1.118,-0.008 1.294,0 2.699,0.031 4.421,0.097 2.319,0.097 4.087,0.213 5.73,0.376 1.588,0.154 3.192,0.357 4.743,0.554 0.657,0.083 1.314,0.166 1.973,0.247 0.239,0.03 0.481,0.065 0.727,0.1 l 0.365,0.052 c 0.456,-0.914 0.975,-1.657 1.588,-2.268 0.563,-0.553 1.208,-0.99 1.999,-1.352 -1.836,-0.342 -3.788,-0.642 -5.804,-0.893 -2.67,-0.326 -5.438,-0.543 -8.228,-0.644 -0.96,-0.035 -1.848,-0.051 -2.713,-0.051 -1.16,0 -2.235,0.03 -3.288,0.09 -1.506,0.086 -2.981,0.175 -4.461,0.326 -2.712,0.276 -5.325,0.743 -7.764,1.387 m -10.193,6.508 c 0.671,-0.052 1.345,-0.088 2.021,-0.124 1.142,-0.061 2.324,-0.124 3.476,-0.273 1.175,-0.148 2.375,-0.233 3.534,-0.315 l 0.51,-0.037 c 0.743,-0.052 1.486,-0.081 2.228,-0.11 l 0.558,-0.023 c 0.484,-0.02 0.969,-0.031 1.454,-0.042 0.299,-0.007 0.598,-0.014 0.895,-0.022 l 1.112,-0.036 c 1.009,-0.032 2.02,-0.064 3.026,-0.084 1.04,-0.024 2.074,-0.039 3.109,-0.039 l 0.522,10e-4 c 1.387,0 2.774,0.014 4.162,0.028 l 1.463,0.014 c 2.399,0.021 4.629,0.106 6.816,0.258 1.053,0.073 2.108,0.166 3.162,0.259 l 0.87,0.077 c 0.158,0.011 0.317,0.027 0.476,0.044 -0.191,-0.166 -0.417,-0.323 -0.701,-0.487 -0.417,-0.243 -0.46,-0.349 -0.328,-0.813 0.049,-0.174 0.102,-0.344 0.157,-0.519 l 0.031,-0.099 -0.395,-0.062 c -0.503,-0.079 -1.003,-0.158 -1.508,-0.224 -2.586,-0.348 -6,-0.767 -9.469,-0.928 l -0.381,-0.018 c -1.65,-0.073 -3.357,-0.149 -5.019,-0.173 -0.48,-0.007 -0.961,-0.011 -1.441,-0.011 -1.623,0 -3.085,0.047 -4.472,0.144 l -0.975,0.065 c -1.237,0.081 -2.516,0.165 -3.769,0.293 -2.727,0.265 -5.479,0.686 -8.181,1.251 -3.441,0.724 -6.482,1.598 -9.288,2.668 2.083,-0.296 4.193,-0.483 6.345,-0.663 m -1.327,1.776 c -3.402,0.999 -6.264,2.341 -8.749,4.101 -1.897,1.348 -3.43,2.843 -4.665,4.547 0.915,-0.788 1.963,-1.513 3.127,-2.163 2.203,-1.229 4.782,-2.214 7.882,-3.01 2.501,-0.64 5.231,-1.109 8.344,-1.436 2.183,-0.228 4.426,-0.338 6.356,-0.423 1.233,-0.058 2.462,-0.101 3.701,-0.138 l 4.497,-0.124 c 0.954,-0.016 1.92,-0.024 2.868,-0.028 l 2.686,-0.003 c 1.155,0 2.306,0.004 3.452,0.022 1.741,0.03 3.497,0.088 5.221,0.173 l 0.094,0.003 c 0.307,0 0.478,-0.082 0.703,-0.337 1.192,-1.384 2.643,-2.285 4.326,-2.684 -1.842,-0.19 -3.5,-0.312 -5.046,-0.372 l -1.41,-0.06 c -1.348,-0.059 -2.743,-0.12 -4.109,-0.137 -1.24,-0.018 -2.479,-0.023 -3.716,-0.023 l -4.684,0.008 c -0.896,0.002 -1.783,0.029 -2.667,0.055 l -0.24,0.007 c -0.861,0.028 -1.72,0.06 -2.579,0.092 -0.877,0.033 -1.753,0.066 -2.633,0.093 -1.882,0.053 -3.758,0.188 -5.574,0.403 -2.618,0.318 -4.968,0.787 -7.185,1.434 m -14.7,11.204 c 1.924,-1.098 4.026,-1.949 6.255,-2.531 1.795,-0.469 3.661,-0.772 5.546,-0.901 0.599,-0.038 1.237,-0.057 1.895,-0.057 0.593,0 1.188,0.015 1.782,0.042 0.075,0.004 0.149,0.011 0.223,0.018 0.093,0.009 0.186,0.019 0.281,0.019 0.111,0 0.206,-0.014 0.293,-0.043 3.274,-1.159 6.611,-1.705 9.443,-2.086 2.567,-0.341 5.112,-0.577 7.565,-0.701 l 0.871,-0.045 c 1.537,-0.08 3.126,-0.162 4.691,-0.206 1.146,-0.039 2.363,-0.058 3.831,-0.058 l 1.038,0.003 c 1.073,0.001 2.151,0.017 3.227,0.033 l 1.306,0.017 c -0.032,-0.136 0.028,-0.283 0.087,-0.407 0.209,-0.505 0.46,-1.004 0.654,-1.379 0.106,-0.213 0.232,-0.413 0.367,-0.628 l 0.005,-0.007 -0.541,-0.024 c -0.784,-0.036 -1.54,-0.07 -2.293,-0.09 -1.399,-0.034 -2.802,-0.047 -4.196,-0.06 l -0.144,-10e-4 c -0.951,-0.012 -1.902,-0.017 -2.853,-0.017 -2.084,0 -4.284,0.026 -6.54,0.079 -0.723,0.018 -1.46,0.042 -2.182,0.066 l -3.658,0.159 c -0.448,0.023 -0.897,0.044 -1.347,0.065 -0.885,0.042 -1.773,0.084 -2.654,0.144 -1.907,0.141 -3.76,0.351 -5.507,0.623 -3.109,0.487 -5.808,1.139 -8.25,1.996 -2.498,0.883 -4.542,1.91 -6.25,3.139 -1.253,0.896 -2.221,1.83 -2.945,2.838 m 8.831,1.768 c -1.91,1.633 -3.603,3.577 -5.037,5.784 0.557,-0.545 1.17,-1.072 1.852,-1.597 2.107,-1.632 4.535,-2.993 7.421,-4.163 4.308,-1.743 9.241,-2.92 15.083,-3.596 2.23,-0.259 4.269,-0.419 6.233,-0.487 l 1.052,-0.033 c 1.029,-0.033 2.056,-0.065 3.095,-0.087 0.306,-0.005 0.612,-0.008 0.919,-0.008 0.66,0 1.322,0.011 1.989,0.023 0.732,0.018 1.461,0.043 2.191,0.068 0.608,0.021 1.217,0.042 1.826,0.059 0.337,0.006 0.673,0.007 1.02,0.007 l 0.45,0.001 0.102,-0.159 c 0.556,-0.918 1.363,-1.589 2.471,-2.053 0.785,-0.321 1.651,-0.544 2.643,-0.68 -0.169,-0.08 -0.337,-0.155 -0.503,-0.228 l -0.184,-0.082 c -0.264,-0.111 -0.544,-0.172 -0.85,-0.186 -0.176,-0.005 -0.863,-0.036 -1.027,-0.042 l -2.167,-0.027 c -1.207,-0.016 -2.41,-0.032 -3.61,-0.042 -0.467,-0.004 -0.934,-0.007 -1.4,-0.007 -2.565,0 -5.128,0.074 -7.617,0.219 l -0.565,0.032 c -1.259,0.071 -2.562,0.145 -3.838,0.264 -1.419,0.127 -2.958,0.297 -4.845,0.535 -2.338,0.292 -4.671,0.745 -6.933,1.348 -3.687,1.003 -6.975,2.731 -9.771,5.137 m 0.203,5.213 c 3.017,-1.227 6.303,-2.134 9.764,-2.695 1.646,-0.274 3.332,-0.421 4.962,-0.563 0.496,-0.043 0.992,-0.086 1.49,-0.133 1.452,-0.131 2.912,-0.253 4.371,-0.375 1.128,-0.095 2.256,-0.189 3.383,-0.288 2.248,-0.191 4.515,-0.388 6.793,-0.59 1.547,-0.138 3.092,-0.277 4.638,-0.421 0.217,-0.021 0.951,-0.098 0.951,-0.098 0.185,-1.124 0.537,-2.192 1.07,-3.252 l -0.041,-0.002 c -0.313,-0.017 -0.601,-0.033 -0.885,-0.043 -0.529,-0.018 -1.057,-0.039 -1.585,-0.06 -1.19,-0.047 -2.42,-0.095 -3.622,-0.102 -1.729,0 -3.539,0.04 -5.532,0.119 -1.344,0.051 -2.929,0.124 -4.502,0.28 -1.874,0.186 -3.698,0.418 -5.425,0.689 -3.513,0.529 -6.864,1.367 -9.96,2.492 -4.016,1.454 -7.213,3.248 -9.773,5.484 -1.135,0.99 -2.053,2.001 -2.801,3.085 1.973,-1.348 4.173,-2.505 6.704,-3.527 m 37,-3.039 c 0,0.03 0,0.059 0.001,0.09 0.272,-0.123 0.523,-0.232 0.786,-0.337 1.38,-0.512 2.918,-0.765 4.703,-0.772 0.966,0 1.95,0.041 2.902,0.08 0.571,0.023 1.143,0.047 1.717,0.062 0.354,0.015 0.706,0.017 1.072,0.017 -1.193,-0.661 -2.703,-1.405 -4.369,-1.824 -0.415,-0.106 -0.819,-0.176 -1.303,-0.254 -0.416,-0.068 -0.477,-0.326 -0.456,-0.528 0.007,-0.086 0.017,-0.179 0.038,-0.26 0.108,-0.643 0.384,-1.274 0.848,-1.929 0.756,-1.047 1.802,-1.892 3.292,-2.661 l 0.161,-0.081 c -0.156,-0.002 -0.313,-0.005 -0.47,-0.008 -0.304,-0.006 -0.609,-0.012 -0.914,-0.012 -0.218,0 -0.435,0.003 -0.651,0.011 -1.287,0.057 -2.392,0.272 -3.378,0.659 -1.043,0.411 -1.688,0.889 -2.09,1.549 -0.348,0.585 -0.745,1.267 -1.062,1.968 -0.452,0.989 -0.717,2.113 -0.811,3.437 -0.023,0.26 -0.02,0.519 -0.016,0.793 m 12.621,-0.942 c 0.14,0.082 0.27,0.137 0.453,0.138 l 2.112,0.005 c -0.394,-0.176 -0.766,-0.351 -1.096,-0.62 l -0.134,-0.109 0.091,-0.146 c 0.41,-0.662 0.947,-1.229 1.688,-1.784 1.386,-1.054 2.994,-1.718 4.902,-2.025 -0.276,-0.134 -0.542,-0.256 -0.804,-0.368 -2.863,-1.232 -5.659,-2.015 -8.547,-2.395 -0.048,-0.006 -0.095,-0.01 -0.14,-0.01 -0.098,0 -0.18,0.018 -0.262,0.055 -0.16,0.074 -0.322,0.147 -0.484,0.219 -0.345,0.155 -0.693,0.31 -1.028,0.488 -1.214,0.652 -2.109,1.393 -2.736,2.265 -0.39,0.547 -0.617,1.031 -0.724,1.548 0.027,0.006 0.054,0.013 0.087,0.019 0.217,0.056 0.435,0.108 0.652,0.159 0.446,0.105 0.906,0.213 1.346,0.36 1.787,0.568 3.411,1.475 4.624,2.201 m 4.995,0.185 c 0.313,0.08 0.684,0.162 1.067,0.162 0.142,0 0.284,-0.012 0.459,-0.041 0.112,-0.019 0.228,-0.038 0.25,-0.051 0.018,-0.026 0.04,-0.149 0.06,-0.265 0.316,-1.515 0.908,-2.747 1.801,-3.754 -2.674,0.192 -5.086,1.619 -6.155,2.992 0.825,0.428 1.671,0.75 2.518,0.957 m 2.901,-0.402 c 2.718,-1.113 5.028,-1.812 7.27,-2.199 1.003,-0.175 1.904,-0.261 2.752,-0.261 0.525,0 1.041,0.034 1.535,0.1 0,0 0.412,0.059 0.477,0.068 0.23,-0.478 0.449,-0.945 0.673,-1.419 l 0.223,-0.473 -0.075,-0.035 c -0.188,-0.088 -0.381,-0.179 -0.578,-0.251 -1.333,-0.505 -2.722,-0.574 -3.905,-0.575 -1.198,0 -2.387,0.11 -3.635,0.334 -1.033,0.185 -1.768,0.453 -2.381,0.869 -0.967,0.671 -1.675,1.577 -2.161,2.77 -0.166,0.406 -0.298,0.768 -0.379,1.148 z m 3.399,1.369 c 1.717,0.312 3.148,0.457 4.504,0.457 0.648,0 1.287,-0.035 1.899,-0.104 1.464,-0.168 2.681,-0.55 3.724,-1.166 1.554,-0.906 3.002,-1.978 4.28,-2.924 1.354,-1.003 2.704,-2.01 4.054,-3.016 1.315,-0.981 2.63,-1.961 3.945,-2.935 0.236,-0.178 0.484,-0.351 0.733,-0.525 0.137,-0.095 0.274,-0.192 0.411,-0.289 -0.646,-0.519 -1.28,-1.018 -1.936,-1.536 l -0.055,-0.043 -0.018,0.037 c -0.078,0.158 -0.153,0.308 -0.222,0.462 -0.071,0.149 -0.2,0.346 -0.514,0.346 l -0.176,-0.003 c -0.779,0 -1.55,0.22 -2.426,0.691 -1.099,0.6 -2.096,1.448 -3.048,2.589 -0.21,0.263 -0.446,0.376 -0.844,0.376 -0.002,0 -0.11,-0.001 -0.11,-0.001 -1.203,0 -2.234,0.447 -3.068,1.331 -0.718,0.747 -1.262,1.673 -1.665,2.84 -0.021,0.048 -0.037,0.099 -0.054,0.149 l -0.044,0.127 c -0.052,0.134 -0.13,0.336 -0.406,0.336 -0.051,0 -0.113,-0.006 -0.176,-0.018 -0.052,-0.005 -0.102,-0.016 -0.197,-0.038 -0.162,-0.02 -0.322,-0.042 -0.482,-0.064 -0.406,-0.055 -0.826,-0.112 -1.244,-0.125 -0.119,-0.005 -0.239,-0.006 -0.357,-0.006 -0.811,0 -1.697,0.098 -2.79,0.309 -2.079,0.391 -4.198,1.044 -6.66,2.051 1.031,0.292 1.978,0.515 2.942,0.692 m 26.229,-46.279 c 0.443,-0.702 0.869,-1.381 1.293,-2.059 l -0.003,-0.467 c -0.034,0.016 -0.068,0.032 -0.115,0.054 -0.688,-0.586 -1.318,-1.175 -1.873,-1.877 -0.576,0.91 -1.129,1.79 -1.693,2.694 0.804,0.55 1.573,1.088 2.391,1.655 m -14.543,7.811 c 0.09,0.116 0.159,0.225 0.28,0.399 0.047,-0.085 0.054,-0.134 0.085,-0.173 0.554,-0.727 1.092,-1.463 1.649,-2.184 0.127,-0.158 0.089,-0.299 -0.022,-0.419 -0.087,-0.093 -0.195,-0.161 -0.331,-0.281 -0.575,0.914 -1.119,1.79 -1.661,2.658 m -3.433,-1.879 c 0.593,0.529 1.282,0.86 1.951,1.294 -0.5,-0.403 -1.206,-0.866 -1.951,-1.294 m -4.453,5.106 c 0.372,0.137 0.74,0.276 1.109,0.416 0.357,0.135 1.199,0.449 1.265,0.473 0.13,0.049 0.262,0.1 0.393,0.127 0.829,0.151 1.661,0.374 2.47,0.663 0.125,0.042 0.251,0.089 0.383,0.137 0.031,0.012 0.062,0.023 0.093,0.035 -0.043,-0.67 0.102,-1.29 0.443,-1.895 0.166,-0.29 0.328,-0.583 0.489,-0.877 0.203,-0.368 0.406,-0.736 0.619,-1.102 0.114,-0.194 0.115,-0.351 -0.005,-0.55 -2.522,0.187 -4.876,0.997 -7.367,2.536 z m -7.362,4.499 c 0.272,0.155 0.533,0.304 0.785,0.469 0.139,0.091 0.259,0.133 0.412,0.146 0.828,0.051 1.682,0.207 2.609,0.477 1.464,0.425 2.955,1.043 4.584,1.9 0.029,0.013 0.058,0.026 0.087,0.04 -0.128,-1.04 -0.541,-1.731 -1.305,-2.211 -0.121,-0.069 -0.339,-0.256 -0.304,-0.449 0.019,-0.212 0.274,-0.345 0.407,-0.386 0.373,-0.113 0.776,-0.23 1.194,-0.314 1.463,-0.302 3.01,-0.456 4.601,-0.456 l 0.281,0.002 c 0.061,0 0.123,-0.003 0.189,-0.006 -0.041,-0.092 -0.079,-0.176 -0.108,-0.259 -0.07,-0.178 -0.138,-0.362 -0.183,-0.553 -0.018,-0.092 -0.054,-0.152 -0.188,-0.207 -1.903,-0.77 -3.824,-1.159 -5.711,-1.159 -0.701,0 -1.413,0.053 -2.114,0.159 -1.965,0.298 -3.634,1.088 -4.962,2.352 -0.136,0.125 -0.275,0.252 -0.385,0.391 z m -6.588,5.586 c 0.361,0.211 0.702,0.411 1.025,0.619 0.141,0.08 0.251,0.113 0.379,0.114 l 0.248,-0.002 c 0.242,0 0.484,0.007 0.716,0.029 1.475,0.109 2.854,0.546 3.892,0.916 0.317,0.115 0.626,0.236 0.939,0.36 -0.003,-0.01 -0.006,-0.019 -0.01,-0.028 -0.18,-0.674 -0.554,-1.282 -1.143,-1.857 -0.081,-0.076 -0.155,-0.159 -0.228,-0.239 -0.044,-0.048 -0.087,-0.095 -0.13,-0.14 l -0.123,-0.126 0.114,-0.135 c 0.031,-0.038 0.056,-0.072 0.078,-0.1 0.04,-0.054 0.073,-0.096 0.113,-0.132 l 0.084,-0.078 c 0.174,-0.16 0.351,-0.322 0.538,-0.464 1.354,-1.038 2.999,-1.734 4.901,-2.071 -1.044,-0.391 -1.908,-0.624 -2.759,-0.748 -0.589,-0.085 -1.13,-0.126 -1.656,-0.126 -0.772,0 -1.481,0.089 -2.165,0.27 -1.456,0.398 -2.704,1.149 -3.819,2.294 -0.487,0.498 -0.89,1.009 -1.202,1.522 z m -2.744,8.042 c 0.017,0.015 0.08,0.04 0.135,0.044 0.873,0.071 1.777,0.236 2.767,0.507 0.616,0.177 1.231,0.361 1.861,0.55 l 0.597,0.179 -0.058,-0.215 c -0.306,-1.122 -0.594,-2.182 -1.462,-3.032 -0.118,-0.131 -0.096,-0.367 -0.034,-0.489 0.048,-0.091 0.124,-0.165 0.19,-0.23 l 0.074,-0.074 c 1.46,-1.317 3.123,-2.203 5.075,-2.702 -0.295,-0.112 -0.566,-0.215 -0.846,-0.311 -1.514,-0.513 -2.714,-0.741 -3.891,-0.741 -0.205,0 -0.412,0.007 -0.62,0.022 -1.479,0.116 -2.691,0.643 -3.705,1.612 -0.88,0.848 -1.509,1.913 -1.925,3.311 0.748,0.466 1.352,0.981 1.842,1.569 m 14.88,7.296 c -0.785,-0.07 -1.554,-0.106 -2.289,-0.106 -0.862,0 -1.71,0.05 -2.524,0.146 -0.418,1.573 0.358,3.124 1.353,3.863 0.96,-0.638 2.103,-0.837 3.21,-1.03 l 0.334,-0.06 c -0.182,-1.017 -0.152,-1.98 -0.084,-2.813 m 8.598,-0.404 c -0.995,-0.393 -2.066,-0.592 -3.183,-0.592 -0.595,0 -1.219,0.057 -1.851,0.168 -0.89,0.166 -1.758,0.44 -2.577,0.814 -0.157,0.073 -0.163,0.102 -0.164,0.166 0,0.134 -0.018,0.265 -0.037,0.396 -0.014,0.101 -0.029,0.202 -0.032,0.308 -0.034,0.643 0.02,1.272 0.159,1.871 0,0 0.145,-0.005 0.149,-0.005 0.698,-0.062 1.339,-0.092 1.957,-0.092 0.825,0 1.59,0.053 2.337,0.164 0.999,0.143 1.831,0.392 2.535,0.759 0.046,0.022 0.091,0.044 0.137,0.066 0.98,-1.261 2.089,-1.956 3.457,-2.159 -0.913,-0.854 -1.859,-1.465 -2.887,-1.864 m 6.941,-0.889 c -0.475,-0.725 -1.039,-1.368 -1.676,-1.909 -1.322,-1.111 -2.726,-1.696 -4.293,-1.787 -0.097,-0.006 -0.192,-0.009 -0.287,-0.009 -0.75,0 -1.461,0.181 -2.111,0.537 -0.129,0.075 -0.174,0.135 -0.197,0.265 -0.109,0.727 -0.023,1.487 0.276,2.457 0.032,0.093 0.07,0.14 0.208,0.171 1.929,0.422 3.575,1.37 5.033,2.902 0.009,0.01 0.02,0.019 0.031,0.029 0.925,-1.114 1.915,-1.985 3.017,-2.654 z m -2.384,-7.205 c -0.305,0.893 -0.607,2.727 -0.564,3.508 1.458,0.73 2.663,1.82 3.677,3.328 0.774,-0.354 1.542,-0.535 2.359,-0.552 l 0.322,-0.613 c -1.823,-1.627 -3.912,-3.556 -5.794,-5.671 m 1.712,-6.589 c -0.256,0.058 -0.499,0.097 -0.745,0.144 -0.263,0.048 -0.454,0.182 -0.577,0.398 -0.16,0.322 -0.368,0.615 -0.515,0.945 -0.199,0.422 -0.33,0.853 -0.286,1.344 0.721,-0.919 1.436,-1.844 2.153,-2.766 -0.02,-0.021 -0.024,-0.042 -0.03,-0.065 m -8.027,9.451 c 0.006,0.135 0.026,0.266 0.049,0.41 l 0.002,0.014 c 0.807,-0.4 1.631,-0.594 2.508,-0.594 0.75,0 1.525,0.143 2.364,0.436 0.083,-1.32 0.319,-2.553 0.719,-3.757 l -0.059,-0.029 c -0.153,-0.078 -0.292,-0.148 -0.437,-0.206 -0.551,-0.205 -1.116,-0.305 -1.726,-0.305 -0.515,0 -1.046,0.071 -1.619,0.216 -0.089,0.025 -0.182,0.089 -0.243,0.17 -0.29,0.341 -0.511,0.628 -0.696,0.904 -0.621,0.927 -0.903,1.823 -0.862,2.741 m -1.07,-0.416 c 0.078,0.075 0.158,0.148 0.239,0.221 10e-4,-0.017 0.002,-0.033 0.003,-0.049 0.024,-0.291 0.046,-0.564 0.101,-0.843 0.22,-1.087 0.801,-2.14 1.789,-3.231 0.092,-0.085 0.238,-0.195 0.4,-0.23 0.657,-0.18 1.276,-0.267 1.893,-0.267 0.219,0 0.44,0.011 0.664,0.034 0.226,0.025 0.449,0.064 0.676,0.106 -1.238,-1.278 -2.614,-2.516 -4.092,-3.683 -1.861,-1.448 -3.719,-2.627 -5.681,-3.606 l -0.09,-0.045 c -0.591,-0.294 -0.789,-0.392 -1.11,-0.392 -0.182,0 -0.414,0.031 -0.749,0.077 -1.928,0.256 -3.625,0.942 -5.045,2.04 -0.085,0.067 -0.165,0.142 -0.242,0.217 l 0.011,0.013 c 0.824,0.816 1.29,1.71 1.426,2.726 0.008,0.052 0.016,0.077 0.113,0.123 0.289,0.128 0.575,0.266 0.859,0.41 3.104,1.608 5.993,3.694 8.835,6.379 m 0.415,1.638 c -0.368,-0.223 -0.782,-0.347 -1.145,-0.445 -0.621,-0.159 -1.262,-0.237 -1.96,-0.237 -0.418,0 -0.861,0.029 -1.317,0.087 -0.584,0.081 -0.584,0.081 -0.742,0.632 -0.294,0.999 -0.193,1.997 -0.055,2.843 0.032,0.201 0.079,0.399 0.13,0.614 1.475,-0.585 2.918,-0.87 4.404,-0.87 0.295,0 0.594,0.012 0.893,0.035 -0.293,-1.511 -0.326,-1.928 -0.208,-2.659 m 8.292,-11.461 c -1.282,-0.625 -2.546,-1.461 -3.854,-2.563 -0.807,-0.675 -1.501,-1.461 -2.059,-2.332 -0.083,-0.124 -0.158,-0.167 -0.337,-0.167 h -0.008 c -0.313,0.012 -0.626,0.015 -0.94,0.02 -0.362,0.004 -0.724,0.009 -1.084,0.025 -1.339,0.076 -2.517,0.247 -3.601,0.522 0.962,0.881 1.162,1.978 1.208,2.966 1.465,0.848 2.863,1.798 4.27,2.901 1.119,0.874 2.154,1.81 3.033,2.643 0.193,0.297 0.466,0.538 0.805,0.702 0.03,-0.06 0.061,-0.117 0.103,-0.161 0.153,-0.153 0.189,-0.315 0.196,-0.505 0.024,-1.14 0.406,-2.201 1.131,-3.129 0.096,-0.119 0.24,-0.238 0.391,-0.277 0.438,-0.111 0.874,-0.17 1.316,-0.254 0.025,-0.004 0.05,-0.013 0.075,-0.019 -0.186,-0.154 -0.395,-0.288 -0.645,-0.372 m 0.779,-1.194 c 0.146,0.059 0.276,0.108 0.396,0.136 0.375,0.1 0.401,0.094 0.631,-0.199 0.46,-0.567 0.915,-1.136 1.373,-1.7 0.052,-0.076 0.106,-0.162 0.171,-0.259 -0.34,-0.171 -0.65,-0.319 -0.973,-0.475 0.629,-1.028 1.266,-2.049 1.906,-3.069 -0.437,-0.242 -0.86,-0.454 -1.252,-0.702 -0.389,-0.241 -0.766,-0.501 -1.154,-0.769 -0.655,1.038 -1.274,2.035 -1.927,3.07 -0.775,-0.629 -1.534,-1.227 -2.104,-2.082 -0.624,0.996 -1.217,1.952 -1.815,2.911 0.695,0.678 1.441,1.27 2.287,1.798 0.553,-0.886 1.083,-1.738 1.632,-2.609 0.792,0.516 1.559,1.023 2.353,1.538 -0.493,0.782 -1.001,1.579 -1.524,2.411 m -15.082,12.723 c 0.067,-0.273 0.171,-0.533 0.273,-0.785 l 0.038,-0.096 c 0.093,-0.256 0.298,-0.416 0.585,-0.459 0.692,-0.129 1.371,-0.194 2.017,-0.194 0.606,0 1.2,0.058 1.768,0.17 0.053,0.011 0.106,0.022 0.16,0.035 -1.1,-1.03 -2.271,-2.014 -3.486,-2.93 -1.953,-1.461 -3.822,-2.606 -5.714,-3.501 -0.127,-0.059 -0.243,-0.085 -0.375,-0.085 -0.053,0 -0.106,0.004 -0.154,0.011 -1.192,0.216 -2.275,0.589 -3.31,1.14 -0.792,0.418 -1.516,0.92 -2.155,1.494 l 0.111,0.156 c 0.11,0.153 0.218,0.303 0.324,0.464 0.586,0.981 0.876,2.067 1.101,3.088 0.037,0.149 0.091,0.205 0.265,0.282 3.059,1.198 5.942,2.769 8.554,4.66 0.031,0.018 0.062,0.036 0.096,0.055 l -0.013,-0.075 c -0.056,-0.305 -0.105,-0.579 -0.146,-0.854 -0.155,-0.989 -0.135,-1.809 0.061,-2.576 m -14.556,4.954 c 1.667,0.227 3.3,0.588 4.984,1.1 1.326,0.396 2.683,0.899 4.338,1.608 -0.675,-1.106 -0.862,-2.305 -0.553,-3.571 0.052,-0.188 0.163,-0.44 0.552,-0.465 0.025,0 0.049,-0.006 0.072,-0.01 0.035,-0.006 0.069,-0.013 0.1,-0.015 1.063,-0.109 1.885,-0.157 2.664,-0.157 0.353,0 0.706,0.01 1.064,0.034 -2.397,-1.628 -4.916,-2.958 -7.489,-3.953 -0.091,-0.034 -0.2,-0.053 -0.306,-0.053 -0.035,0 -0.07,0.002 -0.101,0.006 -1.546,0.207 -2.977,0.765 -4.258,1.659 -0.574,0.386 -1.079,0.823 -1.539,1.332 0.579,0.78 0.587,1.647 0.472,2.485 m -1.32,-2.748 c 0.044,-0.054 0.095,-0.114 0.178,-0.211 1.056,-1.153 2.331,-2.029 3.791,-2.606 0.427,-0.166 0.871,-0.303 1.301,-0.436 0.03,-0.009 0.061,-0.019 0.091,-0.029 -1.457,-0.488 -2.811,-0.886 -4.257,-1.002 -0.26,-0.021 -0.516,-0.033 -0.767,-0.033 -1.646,0 -3.131,0.481 -4.413,1.427 -1.235,0.922 -2.187,2.135 -2.902,3.703 0.189,0.056 0.377,0.109 0.562,0.161 0.46,0.13 0.895,0.252 1.325,0.415 0.672,0.248 1.339,0.542 1.983,0.827 l 0.406,0.178 c 0.212,0.091 0.377,0.128 0.566,0.129 l 0.201,-0.002 c 0.378,0 0.761,0.016 1.126,0.036 0.336,0.011 0.677,0.031 1.045,0.052 l 0.263,0.015 c 0.005,-0.071 0.01,-0.139 0.015,-0.206 0.011,-0.145 0.022,-0.283 0.027,-0.422 0.015,-0.651 -0.135,-1.067 -0.515,-1.406 -0.165,-0.177 -0.176,-0.39 -0.026,-0.59 m 32.365,-37.626 c -0.596,-0.484 -1.159,-0.95 -1.77,-1.459 -0.545,0.847 -1.053,1.65 -1.582,2.484 0.538,0.163 1.044,0.327 1.546,0.456 0.182,0.05 0.266,0.141 0.311,0.289 0.035,0.126 0.059,0.252 0.11,0.441 0.49,-0.775 0.941,-1.486 1.385,-2.211 m 0.212,4.135 c -0.035,-0.007 -0.059,-0.013 -0.087,-0.021 -0.045,-0.541 -0.086,-1.089 -0.122,-1.623 -0.022,-0.005 -0.04,-0.012 -0.064,-0.012 -0.242,0.382 -0.487,0.769 -0.731,1.154 -0.089,-0.217 -0.103,-0.42 -0.119,-0.629 -0.026,-0.306 -0.179,-0.539 -0.512,-0.722 -0.588,0.944 -1.171,1.875 -1.768,2.832 -0.488,-0.683 -0.888,-1.356 -1.638,-1.832 -0.642,1.042 -1.289,2.056 -1.919,3.076 -0.668,-0.435 -1.293,-0.846 -1.937,-1.266 0.652,-1.033 1.284,-2.044 1.928,-3.076 -0.727,-0.424 -1.424,-0.825 -2.151,-1.252 -0.656,1.058 -1.298,2.089 -1.95,3.134 0.721,0.408 1.406,0.798 2.156,1.216 -0.62,0.995 -1.206,1.936 -1.798,2.876 0.631,0.451 1.241,0.88 1.878,1.334 0.619,-0.986 1.237,-1.936 1.85,-2.902 0.317,0.269 0.603,0.493 0.876,0.74 0.284,0.269 0.474,0.588 0.55,0.953 0.021,0.077 0.045,0.138 0.075,0.279 0.66,-1.029 1.277,-2.001 1.902,-2.972 0.608,0.404 0.704,0.846 0.413,1.771 0.324,-0.489 0.645,-0.988 0.968,-1.476 0.018,0.007 0.046,0.016 0.057,0.023 0.032,0.425 0.069,0.855 0.097,1.281 0.029,0.009 0.054,0.015 0.081,0.015 0.604,-0.907 1.206,-1.817 1.861,-2.803 0.148,0.484 0.276,0.872 0.42,1.338 0.653,-1.045 1.265,-2.032 1.896,-3.031 -0.26,-0.197 -0.514,-0.388 -0.8,-0.607 -0.493,0.776 -0.951,1.484 -1.412,2.202 m 0.43,-2.587 c 0.104,-0.116 0.184,-0.223 0.255,-0.342 0.49,-0.77 0.949,-1.551 1.47,-2.294 0.306,-0.44 0.262,-0.869 0.18,-1.317 -0.051,-0.267 -0.234,-0.451 -0.506,-0.634 -0.664,1.039 -1.308,2.044 -1.952,3.055 0.425,0.437 0.694,0.917 0.553,1.532 m 4.251,0.367 c -0.318,-0.528 -0.634,-1.042 -0.943,-1.564 0.008,0 -0.027,0 -0.041,0.012 -0.451,0.675 -0.907,1.347 -1.354,2.031 -0.039,0.055 -0.022,0.175 0.012,0.258 0.097,0.212 0.211,0.418 0.308,0.629 0.143,0.307 0.239,0.645 0.58,0.925 0.497,-0.782 0.963,-1.539 1.438,-2.291 m -1.455,2.334 c -0.664,1.042 -1.286,2.029 -1.947,3.065 -0.314,-0.606 -0.788,-1.066 -0.981,-1.716 -0.672,0.999 -1.3,1.948 -1.974,2.95 -0.126,-0.435 -0.235,-0.795 -0.35,-1.225 -0.665,1.024 -1.27,1.974 -1.913,2.981 -0.166,-0.57 -0.023,-1.103 -0.212,-1.652 -0.234,0.363 -0.421,0.678 -0.619,0.993 -0.041,0.055 -0.128,0.168 -0.138,0.168 -0.256,-0.121 -0.256,0.118 -0.317,0.209 -0.544,0.954 -1.087,1.916 -1.623,2.885 -0.055,0.098 -0.107,0.202 -0.149,0.306 0.009,0.009 0.034,0.021 0.063,0.027 0.267,-0.439 0.55,-0.87 0.832,-1.322 0.029,0.016 0.046,0.021 0.068,0.037 0.036,0.423 0.073,0.837 0.104,1.263 0.027,0 0.051,0 0.076,0 0.61,-0.91 1.219,-1.826 1.862,-2.803 0.145,0.472 0.269,0.856 0.425,1.335 0.654,-1.054 1.267,-2.044 1.907,-3.055 0.453,0.548 0.456,1.262 1,1.746 0.658,-1.044 1.292,-2.043 1.928,-3.073 0.311,0.29 0.596,0.561 0.89,0.82 0.176,0.163 0.38,0.296 0.548,0.459 0.238,0.231 0.436,0.477 0.692,0.745 0.651,-1.027 1.286,-2.04 1.94,-3.055 -0.773,-0.662 -1.539,-1.272 -2.112,-2.088 m 4.978,6.411 c 0.161,-0.28 0.332,-0.552 0.501,-0.826 l -0.007,-1.376 c -0.231,-0.185 -0.465,-0.372 -0.687,-0.556 0.231,-0.372 0.454,-0.734 0.678,-1.097 l -0.012,-2.51 c -0.421,-0.257 -0.84,-0.513 -1.266,-0.775 -0.609,0.971 -1.212,1.939 -1.842,2.95 0.71,0.467 1.424,0.921 2.13,1.381 -0.626,1.026 -1.275,2.075 -1.938,3.174 0.632,0.285 1.245,0.561 1.861,0.852 -0.527,0.819 -1.039,1.6 -1.53,2.37 0.341,0.845 1.009,1.464 1.493,2.244 0.391,-0.611 0.767,-1.209 1.145,-1.81 l -0.012,-2.415 c -0.259,-0.402 -0.449,-0.835 -0.567,-1.305 -0.021,-0.092 0.006,-0.218 0.053,-0.301 m -2.031,14.49 2.622,2.199 -0.05,-9.682 c -0.402,-0.368 -0.788,-0.751 -1.164,-1.154 -0.633,1.002 -1.244,1.979 -1.873,2.997 -0.741,-0.639 -1.2,-1.364 -1.426,-2.205 -0.051,-0.223 -0.022,-0.444 0.141,-0.654 0.202,-0.272 0.361,-0.566 0.537,-0.853 0.198,-0.311 0.39,-0.62 0.593,-0.941 -0.239,-0.111 -0.429,-0.201 -0.631,-0.3 -0.304,-0.149 -0.6,-0.313 -0.911,-0.445 -0.065,-0.038 -0.164,-0.017 -0.245,-0.018 0.661,-1.02 1.32,-2.043 1.977,-3.047 -0.825,-0.495 -1.621,-0.977 -2.439,-1.481 -0.613,0.981 -1.23,1.967 -1.866,2.976 -0.793,-0.639 -1.533,-1.259 -2.112,-2.068 -0.642,1.015 -1.272,2.002 -1.932,3.034 -0.367,-0.581 -0.705,-1.11 -1.041,-1.648 -0.621,0.925 -1.242,1.875 -1.913,2.877 -0.128,-0.439 -0.232,-0.795 -0.358,-1.23 -0.638,1.019 -1.248,1.984 -1.854,2.95 -0.013,-0.007 -0.053,-0.022 -0.081,-0.022 -0.029,-0.444 -0.064,-0.878 -0.099,-1.321 -0.056,0.127 -0.111,0.253 -0.166,0.38 -0.126,0.933 0.132,1.816 0.621,2.671 0.082,-0.177 0.121,-0.33 0.199,-0.462 0.174,-0.287 0.35,-0.574 0.534,-0.864 0.4,-0.627 0.814,-1.271 1.27,-1.967 0.137,0.323 0.249,0.58 0.381,0.847 0.106,0.234 0.228,0.464 0.355,0.689 0.046,0.077 0.143,0.126 0.226,0.197 0.643,-1.033 1.274,-2.028 1.912,-3.054 0.728,0.69 1.429,1.355 2.138,2.033 0.63,-0.99 1.272,-1.995 1.92,-3.015 0.154,0.092 0.265,0.157 0.374,0.219 0.645,0.403 1.292,0.806 1.932,1.215 0.009,0.035 0.014,0.056 0.023,0.091 -0.349,0.593 -0.719,1.192 -1.084,1.785 -0.247,0.412 -0.505,0.818 -0.781,1.267 0.648,0.292 1.242,0.561 1.861,0.843 -0.525,0.825 -1.045,1.616 -1.557,2.398 0.325,0.865 0.948,1.537 1.495,2.324 0.683,-1.078 1.32,-2.099 1.982,-3.14 0.841,0.761 1.65,1.494 2.465,2.237 0.059,0.049 0.079,0.132 0.121,0.203 -0.05,0.098 -0.085,0.195 -0.149,0.287 -0.588,0.867 -1.177,1.734 -1.772,2.608 -0.052,0.07 -0.108,0.147 -0.175,0.244 -0.85,-0.81 -1.683,-1.586 -2.513,-2.384 -0.614,0.977 -1.213,1.958 -1.84,2.966 -0.876,-0.706 -1.317,-1.597 -1.548,-2.64 -0.077,0.097 -0.116,0.146 -0.148,0.195 -0.566,0.926 -1.125,1.849 -1.698,2.762 -0.151,0.238 -0.163,0.443 -0.066,0.698 0.165,0.47 0.49,0.858 0.766,1.264 0.216,0.31 0.441,0.599 0.676,0.925 0.657,-1.044 1.293,-2.05 1.944,-3.088 0.827,0.835 1.623,1.66 2.436,2.482 -0.626,1.017 -1.256,2.022 -1.902,3.052 -0.849,-0.813 -1.68,-1.587 -2.518,-2.385 -0.542,0.862 -1.071,1.705 -1.612,2.581 0.752,0.902 1.463,1.819 2.351,2.651 0.605,-0.962 1.187,-1.876 1.779,-2.81 1.211,0.894 2.281,1.899 3.528,2.76 0.664,-1.039 1.295,-2.043 1.934,-3.036 0.362,0.231 0.719,0.458 1.076,0.685 l -0.012,-2.188 -1.064,1.503 -3.56,-2.813 z m 1.295,14.452 c 0.463,-0.758 0.92,-1.492 1.378,-2.231 l -0.006,-1.178 c -1.023,-0.661 -2.033,-1.316 -3.057,-1.98 -0.641,1.005 -1.267,2.016 -1.905,3.032 1.138,0.874 2.323,1.664 3.59,2.357 M 4.391,4.072 C 4.348,4.184 4.251,4.271 4.104,4.334 L 4.009,4.375 3.922,4.317 C 2.358,3.295 0.687,2.448 -1.048,1.801 -2.736,1.183 -4.589,0.712 -6.556,0.401 -7.671,0.233 -9.6,0.1 -10.945,0.1 c -0.265,0 -0.473,0.005 -0.637,0.013 l 0.098,0.043 c 0.3,0.132 0.597,0.261 0.887,0.404 2.607,1.315 4.944,3.027 6.95,5.09 2.379,2.453 4.274,5.278 5.629,8.399 0.083,0.166 0.161,0.36 0.225,0.567 0.035,0.166 -0.035,0.34 -0.16,0.433 l -0.052,0.039 -0.099,0.01 C 1.8,15.098 1.684,15.051 1.65,15.036 1.605,15.035 1.548,14.975 1.517,14.943 0.719,14.294 -0.19,13.67 -1.265,13.032 -3.141,11.924 -5.156,10.96 -7.255,10.167 -10.926,8.769 -14.89,7.861 -19.036,7.468 -20.234,7.352 -21.437,7.256 -22.642,7.16 -23.432,7.097 -24.222,7.034 -25.011,6.965 -27.925,6.72 -30.846,6.462 -33.75,6.204 -35.428,6.055 -37.104,5.9 -38.78,5.746 l -2.41,-0.222 c 0,0 -0.845,-0.061 -1.164,-0.086 l 0.002,0.25 c 0.003,0.591 0.006,1.191 -0.012,1.782 10e-4,0.112 -0.055,0.205 -0.105,0.287 -0.017,0.03 -0.036,0.06 -0.052,0.094 l -0.094,0.198 -0.311,-0.194 c -0.179,-0.113 -0.336,-0.21 -0.5,-0.298 -0.729,-0.386 -1.602,-0.65 -2.745,-0.83 -0.955,-0.15 -1.948,-0.224 -3.034,-0.224 -0.374,0 -0.748,0.009 -1.122,0.026 -1.965,0.086 -3.701,0.149 -5.309,0.191 -0.422,0.014 -0.846,0.017 -1.27,0.017 l -1.059,0.001 c 0,0 -0.74,0.01 -0.932,0.01 -0.229,0 -0.457,-0.004 -0.686,-0.016 -0.101,-0.005 -0.2,-0.007 -0.299,-0.007 -0.332,0 -0.646,0.03 -0.963,0.094 -0.354,0.081 -0.682,0.121 -0.999,0.121 -0.294,0 -0.579,-0.036 -0.848,-0.107 -0.065,-0.018 -0.157,-0.028 -0.245,-0.028 -0.076,0 -0.146,0.008 -0.191,0.022 -1.416,0.423 -2.838,0.757 -4.225,0.992 -1.563,0.255 -2.934,0.379 -4.192,0.379 -0.64,0 -1.268,-0.032 -1.869,-0.096 -1.677,-0.181 -3.103,-0.645 -4.361,-1.419 -1.473,-0.898 -2.881,-1.937 -4.243,-2.943 l -0.418,-0.309 c -2.876,-2.128 -5.756,-4.252 -8.636,-6.376 -0.052,-0.039 -0.143,-0.109 -0.17,-0.117 -10e-4,0 -0.007,0.004 -0.009,0.005 -0.045,-0.051 -0.1,-0.094 -0.149,-0.14 -0.041,0.021 -0.08,0.043 -0.139,0.076 -1.039,0.627 -2.059,1.289 -3.133,1.867 -1.488,0.801 -3.091,1.407 -4.732,1.884 -0.956,0.281 -1.935,0.522 -2.931,0.646 -0.821,0.108 -1.629,0.204 -2.392,0.579 -0.659,0.34 -1.12,1.189 -1.211,1.866 -0.105,0.822 0.314,1.271 1.318,1.483 0.407,0.09 0.836,0.06 1.254,0.092 -0.065,-0.012 -0.141,0.037 -0.228,0.056 -0.618,0.166 -1.264,0.174 -1.868,-0.04 -0.767,-0.281 -1.385,-0.989 -1.071,-1.867 0.126,-0.322 0.285,-0.654 0.441,-1.01 -0.936,-1.399 -1.878,-2.806 -2.818,-4.211 -1.017,0.217 -2.012,0.443 -2.95,0.677 -6.165,1.529 -13.059,6.476 -14.693,7.695 -1.634,-1.219 -8.527,-6.166 -14.692,-7.695 -0.939,-0.234 -1.933,-0.46 -2.95,-0.677 -0.94,1.405 -1.882,2.812 -2.819,4.211 0.157,0.356 0.316,0.688 0.442,1.01 0.314,0.878 -0.304,1.586 -1.072,1.867 -0.603,0.214 -1.25,0.206 -1.868,0.04 -0.087,-0.019 -0.163,-0.068 -0.227,-0.056 0.418,-0.032 0.847,-0.002 1.253,-0.092 1.005,-0.212 1.424,-0.661 1.319,-1.483 -0.091,-0.677 -0.553,-1.526 -1.211,-1.866 -0.764,-0.375 -1.571,-0.471 -2.392,-0.579 -0.997,-0.124 -1.975,-0.365 -2.931,-0.646 -1.641,-0.477 -3.244,-1.083 -4.732,-1.884 -1.075,-0.578 -2.094,-1.24 -3.133,-1.867 -0.059,-0.033 -0.099,-0.055 -0.139,-0.076 -0.05,0.046 -0.105,0.089 -0.149,0.14 -0.002,-10e-4 -0.008,-0.005 -0.009,-0.005 -0.028,0.008 -0.118,0.078 -0.17,0.117 -2.88,2.124 -5.761,4.248 -8.636,6.376 l -0.419,0.309 c -1.362,1.006 -2.769,2.045 -4.242,2.943 -1.258,0.774 -2.685,1.238 -4.361,1.419 -0.601,0.064 -1.23,0.096 -1.87,0.096 -1.258,0 -2.629,-0.124 -4.192,-0.379 -1.387,-0.235 -2.808,-0.569 -4.224,-0.992 -0.046,-0.014 -0.115,-0.022 -0.191,-0.022 -0.088,0 -0.18,0.01 -0.246,0.028 -0.268,0.071 -0.553,0.107 -0.848,0.107 -0.316,0 -0.645,-0.04 -0.999,-0.121 -0.316,-0.064 -0.631,-0.094 -0.962,-0.094 -0.099,0 -0.198,0.002 -0.299,0.007 -0.228,0.012 -0.457,0.016 -0.686,0.016 -0.192,0 -0.933,-0.01 -0.933,-0.01 l -1.058,-0.001 c -0.424,0 -0.848,-0.003 -1.271,-0.017 -1.607,-0.042 -3.343,-0.105 -5.309,-0.191 -0.373,-0.017 -0.747,-0.026 -1.122,-0.026 -1.086,0 -2.078,0.074 -3.034,0.224 -1.143,0.18 -2.015,0.444 -2.745,0.83 -0.164,0.088 -0.319,0.185 -0.499,0.298 l -0.311,0.194 -0.094,-0.198 c -0.017,-0.034 -0.035,-0.064 -0.053,-0.094 -0.049,-0.082 -0.105,-0.175 -0.104,-0.287 -0.019,-0.591 -0.016,-1.191 -0.012,-1.782 l 10e-4,-0.25 c -0.318,0.025 -1.163,0.086 -1.163,0.086 l -2.41,0.222 c -1.676,0.154 -3.353,0.309 -5.03,0.458 -2.904,0.258 -5.826,0.516 -8.74,0.761 -0.789,0.069 -1.579,0.132 -2.369,0.195 -1.204,0.096 -2.408,0.192 -3.605,0.308 -4.147,0.393 -8.111,1.301 -11.781,2.699 -2.099,0.793 -4.115,1.757 -5.991,2.865 -1.074,0.638 -1.983,1.262 -2.782,1.911 -0.03,0.032 -0.088,0.092 -0.133,0.093 -0.033,0.015 -0.149,0.062 -0.246,0.062 l -0.098,-0.01 -0.052,-0.039 c -0.126,-0.093 -0.195,-0.267 -0.16,-0.433 0.064,-0.207 0.141,-0.401 0.224,-0.567 1.356,-3.121 3.25,-5.946 5.63,-8.399 2.006,-2.063 4.343,-3.775 6.949,-5.09 0.29,-0.143 0.588,-0.272 0.887,-0.404 l 0.099,-0.043 c -0.164,-0.008 -0.372,-0.013 -0.637,-0.013 -1.346,0 -3.275,0.133 -4.39,0.301 -1.966,0.311 -3.82,0.782 -5.508,1.4 -1.734,0.647 -3.406,1.494 -4.969,2.516 l -0.087,0.058 -0.096,-0.041 c -0.146,-0.063 -0.243,-0.15 -0.286,-0.262 -0.064,-0.163 0.008,-0.32 0.052,-0.414 l 0.12,-0.304 c 0.175,-0.441 0.356,-0.898 0.579,-1.339 1.065,-2.091 2.582,-3.953 4.638,-5.694 1.527,-1.294 3.286,-2.428 5.227,-3.374 1.903,-0.929 3.917,-1.675 6.122,-2.263 -1.997,0.162 -4.195,0.372 -6.33,0.709 -0.619,0.097 -1.247,0.228 -1.854,0.354 l -0.539,0.109 c -0.044,0.009 -0.095,0.02 -0.15,0.02 -0.121,0 -0.225,-0.053 -0.292,-0.143 -0.193,-0.227 -0.026,-0.434 0.057,-0.537 0.423,-0.523 0.966,-1.012 1.709,-1.54 1.032,-0.724 2.211,-1.394 3.709,-2.109 2.447,-1.161 5.12,-2.18 8.415,-3.206 2.03,-0.64 4.135,-1.237 6.411,-1.818 l -1.05,-0.028 c -0.972,-0.029 -1.942,-0.057 -2.915,-0.057 h -0.188 c -1.236,0.01 -2.473,0.082 -3.52,0.15 -0.76,0.052 -1.522,0.125 -2.286,0.198 -0.517,0.049 -1.035,0.098 -1.586,0.146 -0.044,0.007 -0.091,0.013 -0.135,0.013 -0.177,0 -0.302,-0.098 -0.338,-0.288 -0.009,-0.153 0.074,-0.343 0.189,-0.438 l 0.458,-0.396 c 0.535,-0.465 1.089,-0.947 1.682,-1.371 2.544,-1.848 5.514,-3.319 9.079,-4.496 2.431,-0.79 5.003,-1.381 7.646,-1.755 0.644,-0.092 1.294,-0.162 1.945,-0.232 -0.811,-0.096 -1.622,-0.19 -2.432,-0.285 -1.316,-0.154 -2.631,-0.308 -3.945,-0.466 -0.409,-0.051 -0.817,-0.115 -1.227,-0.181 l -0.496,-0.079 c -0.065,-0.005 -0.194,-0.019 -0.327,-0.062 -0.144,-0.053 -0.239,-0.163 -0.254,-0.295 -0.015,-0.129 0.05,-0.256 0.176,-0.34 0.207,-0.136 0.415,-0.252 0.631,-0.352 2.067,-1.018 4.359,-1.879 7.005,-2.631 2.102,-0.6 4.305,-1.091 6.546,-1.457 0.812,-0.134 1.622,-0.244 2.432,-0.353 l 0.773,-0.106 c -1.421,-0.518 -2.65,-0.808 -3.84,-0.91 -0.293,-0.023 -0.587,-0.04 -0.88,-0.04 -0.709,0 -1.282,0.099 -1.802,0.312 -0.078,0.032 -0.152,0.048 -0.219,0.048 -0.156,0 -0.276,-0.09 -0.317,-0.246 -0.034,-0.159 0.083,-0.36 0.207,-0.441 l 0.162,-0.106 c 0.353,-0.232 0.708,-0.466 1.081,-0.684 1.992,-1.147 4.126,-2.078 6.524,-2.846 2.112,-0.683 4.289,-1.178 6.473,-1.471 0.374,-0.047 0.754,-0.089 1.132,-0.131 l 0.508,-0.058 c 0.002,-0.009 0.005,-0.018 0.008,-0.026 0.031,-0.091 0.065,-0.193 0.139,-0.281 0.262,-0.323 0.542,-0.635 0.821,-0.948 l 0.301,-0.338 c 0.446,-0.491 0.995,-0.884 1.679,-1.202 l 0.275,-0.127 c 0.959,-0.444 1.951,-0.904 2.996,-1.247 1.926,-0.641 3.929,-1.061 5.952,-1.25 0.806,-0.074 1.622,-0.111 2.426,-0.111 0.892,0 1.8,0.046 2.697,0.137 1.586,0.164 2.971,0.426 4.233,0.802 0.629,0.184 1.249,0.406 1.849,0.619 0.171,0.062 0.341,0.122 0.51,0.182 -0.161,-0.179 -0.327,-0.357 -0.504,-0.516 -1.096,-0.988 -2.421,-1.7 -3.937,-2.116 -0.114,-0.032 -0.234,-0.058 -0.355,-0.084 -0.125,-0.027 -0.25,-0.054 -0.375,-0.089 -0.087,-0.027 -0.172,-0.071 -0.284,-0.132 l -0.484,-0.25 0.471,-0.251 c 0.124,-0.069 0.217,-0.119 0.323,-0.158 0.891,-0.32 1.871,-0.565 3.175,-0.795 1.437,-0.26 3.009,-0.387 4.803,-0.387 0.389,0 0.779,0.006 1.165,0.016 0.131,0 0.261,0.012 0.394,0.024 0.115,0.014 0.229,0.03 0.344,0.046 0.038,-0.067 0.08,-0.137 0.113,-0.202 0.572,-1.008 1.101,-2.029 1.711,-3.006 0.624,-0.981 1.326,-1.93 2.011,-2.889 1.598,-2.237 3.404,-4.34 5.238,-6.417 0.294,-0.339 0.612,-0.359 1.004,-0.259 0.845,0.219 1.587,0.615 2.233,1.136 1.285,1.036 2.265,2.298 3.058,3.672 0.347,0.617 0.628,1.256 0.822,1.93 0.09,0.301 0.082,0.549 -0.125,0.822 -0.296,0.378 -0.511,0.812 -0.826,1.166 -0.413,0.467 -0.384,0.981 -0.248,1.515 0.12,0.485 0.412,0.892 0.686,1.306 0.043,0.065 0.103,0.115 0.174,0.146 0.514,0.22 1.023,0.436 1.533,0.653 -0.04,-0.089 -0.074,-0.181 -0.124,-0.265 0.078,0.032 0.13,0.055 0.13,0.055 l 0.761,-0.602 c -0.287,-0.381 -0.553,-0.696 -0.826,-0.982 -0.256,-0.267 -0.549,-0.519 -0.858,-0.786 l -0.608,-0.532 0.271,-0.126 c 0.062,-0.028 0.114,-0.055 0.162,-0.08 0.103,-0.053 0.192,-0.099 0.298,-0.126 0.886,-0.224 1.783,-0.35 2.665,-0.373 0.204,-0.006 0.405,-0.01 0.607,-0.01 0.611,0 1.228,0.036 1.875,0.102 0.088,0.03 0.175,0.061 0.271,0.079 0.013,0.014 0.028,0.025 0.041,0.038 2.675,-2.061 5.618,-4.266 7.686,-5.634 9.001,-5.975 17.811,-8.09 17.811,-8.09 0,0 0.007,0.002 0.009,0.002 0.002,0 0.01,-0.002 0.01,-0.002 0,0 8.81,2.115 17.811,8.09 2.067,1.368 5.011,3.573 7.686,5.634 0.013,-0.013 0.027,-0.024 0.04,-0.038 0.097,-0.018 0.183,-0.049 0.272,-0.079 0.646,-0.066 1.263,-0.102 1.875,-0.102 0.201,0 0.403,0.004 0.606,0.01 0.882,0.023 1.78,0.149 2.666,0.373 0.107,0.027 0.194,0.073 0.297,0.126 0.049,0.025 0.102,0.052 0.162,0.08 l 0.272,0.126 -0.609,0.532 c -0.309,0.267 -0.601,0.519 -0.858,0.786 -0.273,0.286 -0.538,0.601 -0.826,0.982 l 0.761,0.602 c 0,0 0.053,-0.023 0.131,-0.055 -0.051,0.084 -0.084,0.176 -0.125,0.265 0.51,-0.217 1.02,-0.433 1.533,-0.653 0.072,-0.031 0.132,-0.081 0.174,-0.146 0.275,-0.414 0.567,-0.821 0.687,-1.306 0.135,-0.534 0.165,-1.048 -0.248,-1.515 -0.315,-0.354 -0.531,-0.788 -0.826,-1.166 -0.207,-0.273 -0.216,-0.521 -0.125,-0.822 0.194,-0.674 0.474,-1.313 0.822,-1.93 0.792,-1.374 1.772,-2.636 3.057,-3.672 0.646,-0.521 1.388,-0.917 2.234,-1.136 0.391,-0.1 0.71,-0.08 1.004,0.259 1.834,2.077 3.64,4.18 5.238,6.417 0.685,0.959 1.387,1.908 2.011,2.889 0.61,0.977 1.138,1.998 1.711,3.006 0.033,0.065 0.075,0.135 0.113,0.202 0.114,-0.016 0.228,-0.032 0.344,-0.046 0.133,-0.012 0.262,-0.024 0.393,-0.024 0.386,-0.01 0.776,-0.016 1.165,-0.016 1.795,0 3.366,0.127 4.804,0.387 1.304,0.23 2.283,0.475 3.175,0.795 0.105,0.039 0.198,0.089 0.323,0.158 l 0.471,0.251 -0.485,0.25 c -0.111,0.061 -0.197,0.105 -0.284,0.132 -0.125,0.035 -0.25,0.062 -0.375,0.089 -0.121,0.026 -0.241,0.052 -0.354,0.084 -1.517,0.416 -2.841,1.128 -3.938,2.116 -0.176,0.159 -0.343,0.337 -0.504,0.516 0.169,-0.06 0.34,-0.12 0.51,-0.182 0.601,-0.213 1.221,-0.435 1.85,-0.619 1.261,-0.376 2.647,-0.638 4.233,-0.802 0.897,-0.091 1.804,-0.137 2.696,-0.137 0.805,0 1.621,0.037 2.427,0.111 2.023,0.189 4.026,0.609 5.952,1.25 1.044,0.343 2.036,0.803 2.996,1.247 l 0.275,0.127 c 0.683,0.318 1.232,0.711 1.678,1.202 l 0.301,0.338 c 0.28,0.313 0.56,0.625 0.822,0.948 0.073,0.088 0.108,0.19 0.138,0.281 0.003,0.008 0.006,0.017 0.009,0.026 l 0.508,0.058 c 0.377,0.042 0.757,0.084 1.132,0.131 2.183,0.293 4.361,0.788 6.472,1.471 2.399,0.768 4.533,1.699 6.525,2.846 0.372,0.218 0.727,0.452 1.081,0.684 l 0.162,0.106 c 0.124,0.081 0.24,0.282 0.207,0.441 -0.041,0.156 -0.161,0.246 -0.317,0.246 -0.067,0 -0.141,-0.016 -0.219,-0.048 -0.521,-0.213 -1.093,-0.312 -1.803,-0.312 -0.292,0 -0.586,0.017 -0.88,0.04 -1.189,0.102 -2.419,0.392 -3.839,0.91 l 0.773,0.106 c 0.81,0.109 1.62,0.219 2.431,0.353 2.242,0.366 4.445,0.857 6.547,1.457 2.646,0.752 4.938,1.613 7.005,2.631 0.216,0.1 0.424,0.216 0.631,0.352 0.126,0.084 0.191,0.211 0.176,0.34 -0.016,0.132 -0.111,0.242 -0.254,0.295 -0.134,0.043 -0.262,0.057 -0.327,0.062 l -0.496,0.079 c -0.41,0.066 -0.819,0.13 -1.228,0.181 -1.313,0.158 -2.629,0.312 -3.944,0.466 -0.811,0.095 -1.621,0.189 -2.432,0.285 0.651,0.07 1.301,0.14 1.945,0.232 2.642,0.374 5.215,0.965 7.646,1.755 3.565,1.177 6.535,2.648 9.078,4.496 0.594,0.424 1.148,0.906 1.683,1.371 l 0.457,0.396 c 0.116,0.095 0.199,0.285 0.189,0.438 -0.035,0.19 -0.16,0.288 -0.338,0.288 -0.044,0 -0.091,-0.006 -0.134,-0.013 -0.551,-0.048 -1.07,-0.097 -1.586,-0.146 -0.764,-0.073 -1.527,-0.146 -2.287,-0.198 -1.046,-0.068 -2.284,-0.14 -3.519,-0.15 h -0.189 c -0.972,0 -1.943,0.028 -2.915,0.057 l -1.049,0.028 c 2.276,0.581 4.38,1.178 6.41,1.818 3.295,1.026 5.969,2.045 8.415,3.206 1.499,0.715 2.678,1.385 3.71,2.109 0.743,0.528 1.286,1.017 1.709,1.54 0.083,0.103 0.25,0.31 0.056,0.537 -0.066,0.09 -0.171,0.143 -0.292,0.143 -0.054,0 -0.105,-0.011 -0.149,-0.02 l -0.539,-0.109 c -0.607,-0.126 -1.235,-0.257 -1.855,-0.354 -2.134,-0.337 -4.333,-0.547 -6.33,-0.709 2.205,0.588 4.219,1.334 6.122,2.263 1.942,0.946 3.701,2.08 5.227,3.374 2.057,1.741 3.573,3.603 4.638,5.694 0.223,0.441 0.404,0.898 0.58,1.339 l 0.12,0.304 c 0.044,0.094 0.115,0.251 0.052,0.414" /></g></g></g></g></svg>