<svg xmlns="http://www.w3.org/2000/svg" xmlns:xlink="http://www.w3.org/1999/xlink" width="15" height="15" viewBox="0 0 15 15">
  <defs>
    <clipPath id="clip-path">
      <rect id="Rectangle_6814" data-name="Rectangle 6814" width="15" height="15" fill="#fff"/>
    </clipPath>
  </defs>
  <g id="Mask_Group_35" data-name="Mask Group 35" clip-path="url(#clip-path)">
    <g id="Icon_up_down">
      <path id="Path" d="M2.977.362A.935.935,0,0,1,3.494.033a1,1,0,0,1,.51,0,.935.935,0,0,1,.52.33l2.7,2.584a.89.89,0,0,1,0,1.3l-.03.029a.985.985,0,0,1-1.352,0L4.727,3.207v7.105a.936.936,0,0,1-.935.938H3.708a.936.936,0,0,1-.935-.937V3.207L1.662,4.272a.985.985,0,0,1-1.352,0L.28,4.243a.89.89,0,0,1,0-1.3Z" fill="#191919"/>
      <path id="Path-2" data-name="Path" d="M4.523,10.888a.935.935,0,0,1-.518.329,1,1,0,0,1-.51,0,.934.934,0,0,1-.52-.33L.28,8.3a.89.89,0,0,1,0-1.3l.03-.029a.985.985,0,0,1,1.352,0L2.773,8.043V.937A.936.936,0,0,1,3.708,0h.085a.936.936,0,0,1,.935.937V8.043L5.838,6.978a.985.985,0,0,1,1.352,0l.03.029a.89.89,0,0,1,0,1.3Z" transform="translate(7.5 3.75)" fill="#191919"/>
    </g>
  </g>
</svg>
