<svg xmlns="http://www.w3.org/2000/svg" xmlns:xlink="http://www.w3.org/1999/xlink" width="25" height="25" viewBox="0 0 25 25">
  <defs>
    <clipPath id="clip-path">
      <rect id="Rectangle_6815" data-name="Rectangle 6815" width="25" height="25" fill="#fff"/>
    </clipPath>
  </defs>
  <g id="Mask_Group_41" data-name="Mask Group 41" clip-path="url(#clip-path)">
    <g id="Group_6980" data-name="Group 6980" transform="translate(0.598 8.688)">
      <path id="Path_6060" data-name="Path 6060" d="M368.852,316.22v.549a.3.3,0,0,1-.3.3h-1.114a.3.3,0,0,1-.3-.3v-.479c.584-.011,1.157-.035,1.716-.07Z" transform="translate(-354.379 -309.445)" fill="#fff"/>
      <path id="Path_6062" data-name="Path 6062" d="M300.207,316.288v.479a.3.3,0,0,1-.3.3h-1.114a.3.3,0,0,1-.3-.3v-.549C299.05,316.253,299.624,316.277,300.207,316.288Z" transform="translate(-289.163 -309.443)" fill="#fff"/>
      <path id="Path_6064" data-name="Path 6064" d="M289.77,189.35l.326.023.11.007v-.065Zm5.862-6.46.064.031Z" transform="translate(-280.878 -182.777)" fill="#fff"/>
      <path id="Path_6065" data-name="Path 6065" d="M232.286,236.961l0-.007a.032.032,0,0,0,0,.006l0,.008v0Zm-.016-.093s0,.006,0,.01,0,.011,0,.016a.007.007,0,0,0,0,0C232.27,236.887,232.27,236.878,232.27,236.868Z" transform="translate(-226.251 -234.058)" fill="#fff"/>
      <g id="Group_6979" data-name="Group 6979" transform="translate(0 0)">
        <path id="Path_6061" data-name="Path 6061" d="M422.058,182.778h-1.035c-.066-.1-.118-.2-.183-.288-.052-.066-.092-.144-.144-.21-.2-.275-.6-.8-.917-1.179a1.264,1.264,0,0,0-1.022-.472h-4.585a1.366,1.366,0,0,0-.547.1,1.433,1.433,0,0,1,.269.259c.072.087.15.183.23.283a1.14,1.14,0,0,1,.271-.031h1.323v.053a.3.3,0,0,0,.3.3h.93a.3.3,0,0,0,.3-.3v-.053h1.337a.984.984,0,0,1,.8.367c.223.275.524.668.681.878.013.013.026.026.026.039.066.092.144.2.21.3a.444.444,0,0,1,.092.209.29.29,0,0,1-.288.288H416.5v.1a.468.468,0,0,1-.473.473h-.4a5.506,5.506,0,0,1,.156,1.336v2.065q.339.006.685.006c1.231,0,2.4-.052,3.445-.144v.786a.3.3,0,0,0,.3.3h1.114a.3.3,0,0,0,.3-.3v-2.712a5.169,5.169,0,0,0-.209-1.507h.629a.3.3,0,0,0,.3-.3v-.354a.286.286,0,0,0-.288-.3Zm-1.284,2.411h-.729a.4.4,0,0,1-.1.013h-1.782a.221.221,0,0,1-.223-.223l.026-.328a.253.253,0,0,1,.249-.223h.064l.009-.006.007,0,.007,0,.011,0,.009,0,.01,0a.229.229,0,0,1,.05,0h2.344a.243.243,0,0,1,.243.223l.026.327a.217.217,0,0,1-.223.236Z" transform="translate(-398.544 -180.63)" fill="#fff"/>
        <path id="Path_6063" data-name="Path 6063" d="M119.985,180.639H115.4a1.244,1.244,0,0,0-1.022.472c-.3.38-1.009,1.31-1.061,1.389s-.118.2-.184.288h-1.022a.3.3,0,0,0-.3.3v.354a.3.3,0,0,0,.3.3h.629a5.166,5.166,0,0,0-.209,1.507v2.712a.3.3,0,0,0,.3.3h1.114a.3.3,0,0,0,.3-.3v-.786c1.048.092,2.214.145,3.446.145q.346,0,.685-.006v-2.065a5.515,5.515,0,0,1,.156-1.335h-.4a.468.468,0,0,1-.473-.473v-.1H114.09a.291.291,0,0,1-.288-.288.445.445,0,0,1,.092-.21c.066-.1.707-.943.93-1.219a.985.985,0,0,1,.8-.367h1.323v.053a.3.3,0,0,0,.3.3h.93a.3.3,0,0,0,.3-.3v-.053h1.336a1.2,1.2,0,0,1,.234.022c.083-.107.157-.2.214-.273h0a1.5,1.5,0,0,1,.266-.258,1.4,1.4,0,0,0-.544-.1Zm-4.049,3.773a.244.244,0,0,1,.249.223l.026.328a.217.217,0,0,1-.223.236h-.722l-.025.006-.023,0h0l-.024,0h-1.819a.221.221,0,0,1-.215-.223l.026-.328a.253.253,0,0,1,.242-.222h.075a.168.168,0,0,1,.1-.026Z" transform="translate(-111.81 -180.639)" fill="#fff"/>
        <path id="Path_6066" data-name="Path 6066" d="M243.744,182.786h-1.035c-.066-.1-.118-.2-.184-.288-.052-.066-.092-.144-.144-.21-.061-.086-.143-.2-.237-.319l-.029-.037c-.141-.185-.305-.394-.462-.59l-.19-.234c-.017-.021-.035-.042-.052-.062l-.024-.026-.021-.021-.038-.036-.02-.018a1.247,1.247,0,0,0-.152-.114h0l-.03-.018-.021-.012-.017-.009-.023-.012c-.021-.011-.042-.021-.064-.031l-.033-.014-.031-.012-.008,0-.053-.018-.026-.008-.027-.008-.018-.005-.018,0-.023-.006-.045-.01-.042-.007-.045-.006h0l-.043,0h0l-.046,0H235.8l-.039,0-.048,0h0l-.043,0h-.01l-.031,0-.016,0-.039.007-.043.009-.012,0-.028.007-.014,0-.017,0c-.025.007-.051.015-.075.024l-.035.013-.043.018-.043.019c-.035.017-.069.036-.1.057l-.02.013-.04.027-.02.014-.02.015-.019.015-.019.016-.029.025-.021.019-.026.025c-.028.028-.056.057-.082.088l-.026.031c-.048.061-.107.136-.171.219l-.135.174-.063.082c-.127.165-.26.339-.375.491l-.031.041-.046.06-.029.038-.151.2-.012.017-.018.024-.012.016-.005.007-.007.009,0,.006,0,0c-.015.021-.03.044-.045.066s-.046.076-.07.114-.045.073-.069.107h-1.022a.3.3,0,0,0-.215.087l-.019.021-.008.01c-.005.006-.01.014-.014.021l-.006.011-.009.017a.286.286,0,0,0-.015.036l0,.012c0,.007,0,.014-.005.021a.17.17,0,0,0,0,.021h0a.324.324,0,0,0,0,.045v.354s0,0,0,.006a.259.259,0,0,0,0,.028.08.08,0,0,0,0,.01.021.021,0,0,0,0,0,.091.091,0,0,0,0,.011s0,0,0,0,0,0,0,.007a.026.026,0,0,0,0,.007h0v0l0,.007h0a0,0,0,0,1,0,0h0l0,.008,0,.008,0,.008v0l.005.012.007.014h0l0,.006,0,.005v0l0,.007,0,0,.008.011.009.012.019.021a.3.3,0,0,0,.215.087h.629a4.782,4.782,0,0,0-.161.747c-.006.047-.012.1-.017.145,0,.016,0,.032,0,.049,0,.033-.006.066-.009.1s0,.067-.007.1,0,.059,0,.09,0,.06,0,.091h0c0,.024,0,.049,0,.074,0,.006,0,.012,0,.019v.017c0,.025,0,.051,0,.077v2.712a.344.344,0,0,0,0,.045c0,.007,0,.015,0,.021s0,.014.005.021l0,.012a.34.34,0,0,0,.014.036l.009.017.006.011.014.021.008.01.019.021a.3.3,0,0,0,.215.087H234.4a.3.3,0,0,0,.3-.3v-.786l.108.01.17.014.159.012q.221-.016.436-.035v.066l.1.006.041,0,.169.01.1.006.1.006.123.006.092,0q.267.012.541.02l.11,0,.332.008.171,0,.128,0h1.115l.128,0,.171,0,.166,0,.107,0h.059l.109,0,.494-.018.1,0,.164-.008.1-.005.1-.006.311-.018.437-.03.161-.012.167-.013.108-.009v.786a.307.307,0,0,0,.035.145.276.276,0,0,0,.052.069.3.3,0,0,0,.214.087h1.114a.3.3,0,0,0,.3-.3v-2.712a5.165,5.165,0,0,0-.209-1.507h.629a.3.3,0,0,0,.3-.3v-.354a.286.286,0,0,0-.288-.3Zm-7.3,2.411h-.722l-.025.006-.023,0h0l-.024,0H233.84a.221.221,0,0,1-.223-.222l.026-.328a.254.254,0,0,1,.249-.223h.063a.169.169,0,0,1,.1-.026h2.332a.245.245,0,0,1,.249.223l.026.328A.217.217,0,0,1,236.442,185.2Zm-1.895-1.86a.291.291,0,0,1-.288-.288.442.442,0,0,1,.092-.209c.057-.09.541-.726.817-1.076l.114-.143a.945.945,0,0,1,.356-.277,1.079,1.079,0,0,1,.443-.09H237.4v.052a.3.3,0,0,0,.3.3h.93a.3.3,0,0,0,.3-.3v-.052h1.336a1.093,1.093,0,0,1,.41.075.946.946,0,0,1,.389.292l.114.143c.2.256.436.56.567.735.013.013.026.026.026.039.066.092.144.2.21.3a.445.445,0,0,1,.092.209.291.291,0,0,1-.288.288Zm7.913,1.86h-.722a.4.4,0,0,1-.1.013h-1.782a.221.221,0,0,1-.223-.222l.026-.328a.253.253,0,0,1,.249-.223h.064l.009-.006.007,0,.007,0,.011,0,.009,0,.01,0a.228.228,0,0,1,.05,0h2.332a.244.244,0,0,1,.249.223l.026.327a.217.217,0,0,1-.223.236Z" transform="translate(-226.249 -180.637)" fill="#fff"/>
      </g>
    </g>
  </g>
</svg>
