<svg xmlns="http://www.w3.org/2000/svg" xmlns:xlink="http://www.w3.org/1999/xlink" width="25" height="25" viewBox="0 0 25 25">
  <defs>
    <clipPath id="clip-path">
      <rect id="Rectangle_6815" data-name="Rectangle 6815" width="25" height="25" fill="#fff"/>
    </clipPath>
  </defs>
  <g id="Mask_Group_38" data-name="Mask Group 38" clip-path="url(#clip-path)">
    <path id="Path_37335" data-name="Path 37335" d="M172.787,25.617c-.92-1.864-4.106-6.889-4.106-9.261a4.106,4.106,0,0,1,8.212,0C176.894,18.729,173.708,23.753,172.787,25.617Zm3.036-2.531a.313.313,0,1,1,.25-.573,4.12,4.12,0,0,1,1.433.974,1.954,1.954,0,0,1,.549,1.311,2.557,2.557,0,0,1-1.62,2.112,8.743,8.743,0,0,1-7.3,0,2.555,2.555,0,0,1-1.62-2.112,1.956,1.956,0,0,1,.549-1.311,4.127,4.127,0,0,1,1.433-.974.313.313,0,0,1,.25.574,3.512,3.512,0,0,0-1.217.817,1.348,1.348,0,0,0-.387.894c0,.591.49,1.143,1.282,1.558a8.158,8.158,0,0,0,6.718,0c.792-.415,1.282-.967,1.282-1.558a1.346,1.346,0,0,0-.387-.894,3.511,3.511,0,0,0-1.217-.818Zm-3.036-9.263a2.532,2.532,0,1,1-2.532,2.532A2.532,2.532,0,0,1,172.787,13.824Z" transform="translate(-160.155 -7.779)" fill="#fff" fill-rule="evenodd"/>
  </g>
</svg>
