<svg xmlns="http://www.w3.org/2000/svg" xmlns:xlink="http://www.w3.org/1999/xlink" width="25" height="25" viewBox="0 0 25 25">
  <defs>
    <clipPath id="clip-path">
      <rect id="Rectangle_6815" data-name="Rectangle 6815" width="25" height="25" fill="#fff"/>
    </clipPath>
  </defs>
  <g id="Mask_Group_40" data-name="Mask Group 40" clip-path="url(#clip-path)">
    <path id="Path_37245" data-name="Path 37245" d="M118.731,33.6a.357.357,0,0,0-.357.357v1.964a.357.357,0,0,0,.714,0V33.959A.357.357,0,0,0,118.731,33.6Zm7.141,0a.357.357,0,0,0-.357.357v1.964a.357.357,0,0,0,.714,0V33.959A.357.357,0,0,0,125.872,33.6Zm-9.64,1.428a1.431,1.431,0,0,0-1.434,1.434v3.208h15V36.464a1.431,1.431,0,0,0-1.434-1.434h-1.774V36.3a1.428,1.428,0,1,1-1.428,0V35.03h-5.718v1.261a1.427,1.427,0,1,1-1.428.006V35.03Zm2.5,1.785a.714.714,0,1,0,.714.714A.709.709,0,0,0,118.731,36.815Zm7.141,0a.714.714,0,1,0,.714.714A.709.709,0,0,0,125.872,36.815ZM114.8,40.386v7.492a1.431,1.431,0,0,0,1.434,1.434h12.128a1.431,1.431,0,0,0,1.434-1.434V40.386Z" transform="translate(-109.795 -28.955)" fill="#fff"/>
  </g>
</svg>
