<svg xmlns="http://www.w3.org/2000/svg" xmlns:xlink="http://www.w3.org/1999/xlink" width="25" height="25" viewBox="0 0 25 25">
  <defs>
    <clipPath id="clip-path">
      <rect id="Rectangle_6815" data-name="Rectangle 6815" width="25" height="25" fill="#fff"/>
    </clipPath>
  </defs>
  <g id="Mask_Group_36" data-name="Mask Group 36" clip-path="url(#clip-path)">
    <path id="Path_37252" data-name="Path 37252" d="M124.6,46.668a7.932,7.932,0,1,0,7.932,7.932A7.932,7.932,0,0,0,124.6,46.668Zm.627,11.469v1.175h-1.252v-1.1a3.3,3.3,0,0,1-1.53-.512l-.176-.126.455-1.272.305.2a2.568,2.568,0,0,0,1.393.416c.6,0,1-.31,1-.77,0-.31-.126-.647-1.039-1.017-.966-.379-1.957-.929-1.957-2.13a2.008,2.008,0,0,1,1.628-1.969V49.888h1.241v1.064a3.058,3.058,0,0,1,1.26.4l.209.122-.474,1.252L126,52.558a2.322,2.322,0,0,0-1.216-.329c-.632,0-.856.331-.856.64,0,.335.167.554,1.16.964a2.433,2.433,0,0,1,1.848,2.238,2.129,2.129,0,0,1-1.7,2.066Z" transform="translate(-112.102 -42.102)" fill="#fff"/>
  </g>
</svg>
