<svg xmlns="http://www.w3.org/2000/svg" xmlns:xlink="http://www.w3.org/1999/xlink" width="25" height="25" viewBox="0 0 25 25">
  <defs>
    <clipPath id="clip-path">
      <rect id="Rectangle_6815" data-name="Rectangle 6815" width="25" height="25" fill="#fff"/>
    </clipPath>
  </defs>
  <g id="Mask_Group_39" data-name="Mask Group 39" clip-path="url(#clip-path)">
    <g id="Group_35687" data-name="Group 35687" transform="translate(2895.853 -19757.262)">
      <path id="Path_37246" data-name="Path 37246" d="M362.779,28.007q-.864.565-1.729,1.126V24.987c.025.022.052.044.078.068q.811.7,1.559,1.464c.307.314.606.635.9.966l-.8.522Z" transform="translate(-3244.061 19736.9)" fill="#fff"/>
      <path id="Path_37247" data-name="Path 37247" d="M154.046,25.957c.191-.177.383-.355.579-.527v15.4c0,.111,0,.223,0,.334-.13-.007-.262-.017-.39-.032l-.1-.012h-.005l-.056-.008c-.076-.012-.152-.024-.228-.039-.15-.029-.3-.061-.448-.1a6.834,6.834,0,0,1-.853-.287l0,0a0,0,0,0,1,0,0l-.041-.019-.1-.046c-.068-.03-.135-.064-.2-.1-.133-.068-.263-.138-.392-.214s-.253-.155-.375-.24c-.061-.042-.122-.084-.181-.128l-.09-.066-.012-.007a.3.3,0,0,1-.024-.022,6.628,6.628,0,0,1-.654-.6c-.1-.106-.2-.216-.3-.329-.047-.056-.093-.115-.138-.172a.1.1,0,0,1-.014-.017l.027.034c-.015-.01-.029-.039-.041-.052l-.066-.089a6.538,6.538,0,0,1-.471-.753c-.071-.132-.135-.265-.2-.4-.009-.02-.025-.046-.036-.069a.057.057,0,0,0-.007-.025c-.007-.017-.014-.035-.022-.052-.029-.069-.056-.14-.081-.209a6.344,6.344,0,0,1-.25-.873c-.03-.144-.049-.287-.076-.431,0,.008,0,.014,0,.015s-.012-.073-.014-.088c-.005-.039-.008-.078-.013-.117-.008-.078-.014-.155-.019-.233a6.3,6.3,0,0,1,0-.875c.005-.068.012-.137.019-.2l.01-.091.005-.042c.02-.137.042-.272.069-.407a8.788,8.788,0,0,1,.5-1.609s.01-.025.015-.035l-.007.015c0-.008.007-.015.008-.019l.042-.1c.029-.066.059-.132.089-.2.061-.132.123-.262.189-.39q.2-.388.421-.763a17.2,17.2,0,0,1,.964-1.446c.042-.057.084-.115.128-.172l.057-.076c.01-.014.022-.027.032-.042a.254.254,0,0,1,.029-.03l-.013.015c.013-.014.017-.017.015-.017.083-.093.154-.2.231-.3.172-.213.348-.424.529-.63a26.805,26.805,0,0,1,1.951-2.016Z" transform="translate(-3038.312 19736.471)" fill="#fff"/>
      <path id="Path_37248" data-name="Path 37248" d="M361.156,128.025l-.165.106V124.6l.973-.633,1.819-1.186c.061-.041.122-.079.182-.118.025.03.049.061.074.09.079.1.157.194.235.294.02.025.039.051.059.074,0,0,.005.005.007.008l0,0,.005.005.012.015a0,0,0,0,0,0,0c.037.047.073.1.11.144a16.189,16.189,0,0,1,1.187,1.8l-.268.176q-.649.423-1.3.844l-1.576,1.027q-.681.441-1.36.883Z" transform="translate(-3244.003 19642.246)" fill="#fff"/>
      <path id="Path_37249" data-name="Path 37249" d="M361.345,227.628l-.3.191v-3.537c.125-.081.25-.164.377-.245q.649-.423,1.3-.844l1.576-1.027q.679-.443,1.356-.885c.125-.081.25-.16.373-.242.042.088.084.176.127.265.027.059.054.118.079.177l.039.09a.119.119,0,0,1,.005.014s0,0,0,0a.131.131,0,0,0-.005-.014l.017.042c.049.12.1.24.142.361.091.245.17.493.24.745s.123.495.167.745c.01.059.02.118.029.177,0,.017.007.069.007.073s0-.013,0-.047c0,.035.008.069.013.1.009.078.017.155.024.233-.157.1-.314.2-.473.307l-1.564,1.018q-.945.616-1.892,1.233-.816.537-1.633,1.067Z" transform="translate(-3244.061 19546.902)" fill="#fff"/>
      <path id="Path_37250" data-name="Path 37250" d="M366.764,342.838c0,.066-.007.133-.012.2s-.012.155-.02.233c-.005.039-.008.078-.013.115l-.005.04v-.005c0,.005,0,.01,0,.014a6.506,6.506,0,0,1-.2.9c-.042.145-.089.289-.144.429-.025.071-.054.14-.083.209a.205.205,0,0,1-.012.029.1.1,0,0,0-.007.013c-.015.034-.03.068-.045.1a6.4,6.4,0,0,1-.426.784c-.079.125-.162.247-.25.366l-.066.089-.029.034.014-.015a.03.03,0,0,1,.01-.01c-.007.008-.022.025-.024.029-.046.057-.093.115-.14.17a6.631,6.631,0,0,1-.616.635c-.11.1-.223.194-.338.285l0,0a.19.19,0,0,1-.027.022,0,0,0,0,0,0,0,0,0,0,0,0,0,0s0,0-.005,0l-.09.066c-.059.044-.12.086-.181.127a6.593,6.593,0,0,1-.768.448c-.068.034-.135.064-.2.1l-.1.046-.012.005a.26.26,0,0,1-.032.012c-.14.057-.28.108-.424.155a6.617,6.617,0,0,1-.885.225c-.076.013-.152.025-.228.037l-.022,0h0l-.025,0-.116.013c-.115.012-.23.02-.346.027v-2.109c.16-.1.323-.209.483-.316l1.564-1.018q.945-.616,1.891-1.233.818-.532,1.635-1.066c.1-.062.2-.128.3-.193Z" transform="translate(-3243.903 19428.865)" fill="#fff"/>
    </g>
  </g>
</svg>
